<svg xmlns:inkscape="http://www.inkscape.org/namespaces/inkscape" xmlns:sodipodi="http://sodipodi.sourceforge.net/DTD/sodipodi-0.dtd" xmlns="http://www.w3.org/2000/svg" xmlns:svg="http://www.w3.org/2000/svg" version="1.1" id="svg2" width="1280" height="560" viewBox="0 0 1280 560" sodipodi:docname="Unifesp_simples_verde_negativo.eps">
  <defs id="defs6" fill="#000000"/>
  <sodipodi:namedview id="namedview4" pagecolor="#000000" bordercolor="#000000" borderopacity="0.25" inkscape:showpageshadow="2" inkscape:pageopacity="0.0" inkscape:pagecheckerboard="0" inkscape:deskcolor="#000000" fill="#000000"/>
  <g id="g8" inkscape:groupmode="layer" inkscape:label="ink_ext_XXXXXX" transform="matrix(1.3333333,0,0,-1.3333333,0,560)">
    <g id="g10" transform="scale(0.1)">
      <path d="M 9600,0 H 0 V 4200 H 9600 V 0" style="fill:#ffffff;fill-opacity:1;fill-rule:nonzero;stroke:none" id="path12"/>
      <path d="M 5210.97,992.648 H 7268.5 v 56.522 H 5210.97 v -56.522" style="fill:#000000;fill-opacity:1;fill-rule:evenodd;stroke:none" id="path14"/>
      <path d="m 2330.44,992.648 h 2057.52 v 56.522 H 2330.44 v -56.522" style="fill:#000000;fill-opacity:1;fill-rule:evenodd;stroke:none" id="path16"/>
      <path d="m 4792.53,1073.19 h -56.52 v -56.51 h 56.52 v 56.51" style="fill:#000000;fill-opacity:1;fill-rule:evenodd;stroke:none" id="path18"/>
      <path d="m 4722.56,1073.19 h -56.52 v -56.51 h 56.52 v 56.51" style="fill:#000000;fill-opacity:1;fill-rule:evenodd;stroke:none" id="path20"/>
      <path d="m 4862.54,1073.19 h -56.51 v -56.51 h 56.51 v 56.51" style="fill:#000000;fill-opacity:1;fill-rule:evenodd;stroke:none" id="path22"/>
      <path d="m 4932.56,1073.19 h -56.52 v -56.51 h 56.52 v 56.51" style="fill:#000000;fill-opacity:1;fill-rule:evenodd;stroke:none" id="path24"/>
      <path d="m 4736.01,946.672 h 56.52 v 56.518 h -56.52 v -56.518" style="fill:#000000;fill-opacity:1;fill-rule:evenodd;stroke:none" id="path26"/>
      <path d="m 4666.04,946.672 h 56.52 v 56.518 h -56.52 v -56.518" style="fill:#000000;fill-opacity:1;fill-rule:evenodd;stroke:none" id="path28"/>
      <path d="m 4806.03,946.672 h 56.51 v 56.518 h -56.51 v -56.518" style="fill:#000000;fill-opacity:1;fill-rule:evenodd;stroke:none" id="path30"/>
      <path d="m 4876.04,946.672 h 56.52 v 56.518 h -56.52 v -56.518" style="fill:#000000;fill-opacity:1;fill-rule:evenodd;stroke:none" id="path32"/>
      <path d="m 5210.97,896.719 v -0.059 h -823 v 58.488 H 2330.44 V 842.09 840.191 H 7268.5 v 1.899 113.058 H 5210.97 v -58.429" style="fill:#000000;fill-opacity:1;fill-rule:evenodd;stroke:none" id="path34"/>
      <path d="m 5210.98,1460.66 h 2057.51 v 56.54 H 5210.98 v -56.54" style="fill:#000000;fill-opacity:1;fill-rule:evenodd;stroke:none" id="path36"/>
      <path d="m 4537.57,1460.66 h 523.45 v 56.54 h -523.45 v -56.54" style="fill:#000000;fill-opacity:1;fill-rule:evenodd;stroke:none" id="path38"/>
      <path d="m 4537.57,945.41 h 56.53 v 477.75 h -56.53 V 945.41" style="fill:#000000;fill-opacity:1;fill-rule:evenodd;stroke:none" id="path40"/>
      <path d="m 5004.48,945.41 h 56.54 v 477.75 h -56.54 V 945.41" style="fill:#000000;fill-opacity:1;fill-rule:evenodd;stroke:none" id="path42"/>
      <path d="m 2330.44,1460.66 h 2057.51 v 56.54 H 2330.44 v -56.54" style="fill:#000000;fill-opacity:1;fill-rule:evenodd;stroke:none" id="path44"/>
      <path d="m 4736.01,1086.67 h 56.52 v 56.52 h -56.52 v -56.52" style="fill:#000000;fill-opacity:1;fill-rule:evenodd;stroke:none" id="path46"/>
      <path d="m 4666.04,1086.67 h 56.51 v 56.52 h -56.51 v -56.52" style="fill:#000000;fill-opacity:1;fill-rule:evenodd;stroke:none" id="path48"/>
      <path d="m 4806.03,1086.67 h 56.52 v 56.52 h -56.52 v -56.52" style="fill:#000000;fill-opacity:1;fill-rule:evenodd;stroke:none" id="path50"/>
      <path d="m 4876.03,1086.67 h 56.54 v 56.52 h -56.54 v -56.52" style="fill:#000000;fill-opacity:1;fill-rule:evenodd;stroke:none" id="path52"/>
      <path d="m 4736.01,1296.65 h 56.52 v 56.53 h -56.52 v -56.53" style="fill:#000000;fill-opacity:1;fill-rule:evenodd;stroke:none" id="path54"/>
      <path d="m 4666.04,1296.65 h 56.51 v 56.53 h -56.51 v -56.53" style="fill:#000000;fill-opacity:1;fill-rule:evenodd;stroke:none" id="path56"/>
      <path d="m 4806.03,1296.65 h 56.52 v 56.53 h -56.52 v -56.53" style="fill:#000000;fill-opacity:1;fill-rule:evenodd;stroke:none" id="path58"/>
      <path d="m 4876.03,1296.65 h 56.54 v 56.53 h -56.54 v -56.53" style="fill:#000000;fill-opacity:1;fill-rule:evenodd;stroke:none" id="path60"/>
      <path d="m 4736.01,1366.64 h 56.52 v 56.52 h -56.52 v -56.52" style="fill:#000000;fill-opacity:1;fill-rule:evenodd;stroke:none" id="path62"/>
      <path d="m 4666.04,1366.64 h 56.51 v 56.52 h -56.51 v -56.52" style="fill:#000000;fill-opacity:1;fill-rule:evenodd;stroke:none" id="path64"/>
      <path d="m 4806.03,1366.64 h 56.52 v 56.52 h -56.52 v -56.52" style="fill:#000000;fill-opacity:1;fill-rule:evenodd;stroke:none" id="path66"/>
      <path d="m 4876.03,1366.64 h 56.54 v 56.52 h -56.54 v -56.52" style="fill:#000000;fill-opacity:1;fill-rule:evenodd;stroke:none" id="path68"/>
      <path d="m 4736.01,1226.65 h 56.52 v 56.52 h -56.52 v -56.52" style="fill:#000000;fill-opacity:1;fill-rule:evenodd;stroke:none" id="path70"/>
      <path d="m 4666.04,1226.65 h 56.51 v 56.52 h -56.51 v -56.52" style="fill:#000000;fill-opacity:1;fill-rule:evenodd;stroke:none" id="path72"/>
      <path d="m 4806.03,1226.65 h 56.52 v 56.52 h -56.52 v -56.52" style="fill:#000000;fill-opacity:1;fill-rule:evenodd;stroke:none" id="path74"/>
      <path d="m 4876.03,1226.65 h 56.54 v 56.52 h -56.54 v -56.52" style="fill:#000000;fill-opacity:1;fill-rule:evenodd;stroke:none" id="path76"/>
      <path d="m 4736.01,1156.66 h 56.52 v 56.51 h -56.52 v -56.51" style="fill:#000000;fill-opacity:1;fill-rule:evenodd;stroke:none" id="path78"/>
      <path d="m 4666.04,1156.66 h 56.51 v 56.51 h -56.51 v -56.51" style="fill:#000000;fill-opacity:1;fill-rule:evenodd;stroke:none" id="path80"/>
      <path d="m 4806.03,1156.66 h 56.52 v 56.51 h -56.52 v -56.51" style="fill:#000000;fill-opacity:1;fill-rule:evenodd;stroke:none" id="path82"/>
      <path d="m 4876.03,1156.66 h 56.54 v 56.51 h -56.54 v -56.51" style="fill:#000000;fill-opacity:1;fill-rule:evenodd;stroke:none" id="path84"/>
      <path d="m 7034.44,1086.7 h 56.55 v 56.51 h -56.55 v -56.51" style="fill:#000000;fill-opacity:1;fill-rule:evenodd;stroke:none" id="path86"/>
      <path d="m 6964.46,1086.7 h 56.55 v 56.51 h -56.55 v -56.51" style="fill:#000000;fill-opacity:1;fill-rule:evenodd;stroke:none" id="path88"/>
      <path d="m 7104.46,1086.7 h 56.53 v 56.51 h -56.53 v -56.51" style="fill:#000000;fill-opacity:1;fill-rule:evenodd;stroke:none" id="path90"/>
      <path d="m 7034.44,1296.69 h 56.55 v 56.5 h -56.55 v -56.5" style="fill:#000000;fill-opacity:1;fill-rule:evenodd;stroke:none" id="path92"/>
      <path d="m 6964.46,1296.69 h 56.55 v 56.5 h -56.55 v -56.5" style="fill:#000000;fill-opacity:1;fill-rule:evenodd;stroke:none" id="path94"/>
      <path d="m 7104.46,1296.69 h 56.53 v 56.5 h -56.53 v -56.5" style="fill:#000000;fill-opacity:1;fill-rule:evenodd;stroke:none" id="path96"/>
      <path d="m 7034.44,1366.64 h 56.55 v 56.52 h -56.55 v -56.52" style="fill:#000000;fill-opacity:1;fill-rule:evenodd;stroke:none" id="path98"/>
      <path d="m 6964.46,1366.64 h 56.55 v 56.52 h -56.55 v -56.52" style="fill:#000000;fill-opacity:1;fill-rule:evenodd;stroke:none" id="path100"/>
      <path d="m 7104.46,1366.64 h 56.53 v 56.52 h -56.53 v -56.52" style="fill:#000000;fill-opacity:1;fill-rule:evenodd;stroke:none" id="path102"/>
      <path d="m 7034.44,1226.67 h 56.55 v 56.52 h -56.55 v -56.52" style="fill:#000000;fill-opacity:1;fill-rule:evenodd;stroke:none" id="path104"/>
      <path d="m 6964.46,1226.67 h 56.55 v 56.52 h -56.55 v -56.52" style="fill:#000000;fill-opacity:1;fill-rule:evenodd;stroke:none" id="path106"/>
      <path d="m 7104.46,1226.67 h 56.53 v 56.52 h -56.53 v -56.52" style="fill:#000000;fill-opacity:1;fill-rule:evenodd;stroke:none" id="path108"/>
      <path d="m 7034.44,1156.66 h 56.55 v 56.51 h -56.55 v -56.51" style="fill:#000000;fill-opacity:1;fill-rule:evenodd;stroke:none" id="path110"/>
      <path d="m 6964.46,1156.66 h 56.55 v 56.51 h -56.55 v -56.51" style="fill:#000000;fill-opacity:1;fill-rule:evenodd;stroke:none" id="path112"/>
      <path d="m 7104.46,1156.66 h 56.53 v 56.51 h -56.53 v -56.51" style="fill:#000000;fill-opacity:1;fill-rule:evenodd;stroke:none" id="path114"/>
      <path d="m 6622.94,1086.7 h 56.53 v 56.51 h -56.53 v -56.51" style="fill:#000000;fill-opacity:1;fill-rule:evenodd;stroke:none" id="path116"/>
      <path d="m 6552.97,1086.7 h 56.54 v 56.51 h -56.54 v -56.51" style="fill:#000000;fill-opacity:1;fill-rule:evenodd;stroke:none" id="path118"/>
      <path d="m 6692.94,1086.7 h 56.53 v 56.51 h -56.53 v -56.51" style="fill:#000000;fill-opacity:1;fill-rule:evenodd;stroke:none" id="path120"/>
      <path d="m 6622.94,1296.69 h 56.53 v 56.5 h -56.53 v -56.5" style="fill:#000000;fill-opacity:1;fill-rule:evenodd;stroke:none" id="path122"/>
      <path d="m 6552.97,1296.69 h 56.54 v 56.5 h -56.54 v -56.5" style="fill:#000000;fill-opacity:1;fill-rule:evenodd;stroke:none" id="path124"/>
      <path d="m 6692.94,1296.69 h 56.53 v 56.5 h -56.53 v -56.5" style="fill:#000000;fill-opacity:1;fill-rule:evenodd;stroke:none" id="path126"/>
      <path d="m 6622.94,1366.64 h 56.53 v 56.52 h -56.53 v -56.52" style="fill:#000000;fill-opacity:1;fill-rule:evenodd;stroke:none" id="path128"/>
      <path d="m 6552.97,1366.64 h 56.54 v 56.52 h -56.54 v -56.52" style="fill:#000000;fill-opacity:1;fill-rule:evenodd;stroke:none" id="path130"/>
      <path d="m 6692.94,1366.64 h 56.53 v 56.52 h -56.53 v -56.52" style="fill:#000000;fill-opacity:1;fill-rule:evenodd;stroke:none" id="path132"/>
      <path d="m 6622.94,1226.67 h 56.53 v 56.52 h -56.53 v -56.52" style="fill:#000000;fill-opacity:1;fill-rule:evenodd;stroke:none" id="path134"/>
      <path d="m 6552.97,1226.67 h 56.54 v 56.52 h -56.54 v -56.52" style="fill:#000000;fill-opacity:1;fill-rule:evenodd;stroke:none" id="path136"/>
      <path d="m 6692.94,1226.67 h 56.53 v 56.52 h -56.53 v -56.52" style="fill:#000000;fill-opacity:1;fill-rule:evenodd;stroke:none" id="path138"/>
      <path d="m 6622.94,1156.66 h 56.53 v 56.51 h -56.53 v -56.51" style="fill:#000000;fill-opacity:1;fill-rule:evenodd;stroke:none" id="path140"/>
      <path d="m 6552.97,1156.66 h 56.54 v 56.51 h -56.54 v -56.51" style="fill:#000000;fill-opacity:1;fill-rule:evenodd;stroke:none" id="path142"/>
      <path d="m 6692.94,1156.66 h 56.53 v 56.51 h -56.53 v -56.51" style="fill:#000000;fill-opacity:1;fill-rule:evenodd;stroke:none" id="path144"/>
      <path d="m 2564.43,1831.14 h -56.53 v -56.51 h 56.53 v 56.51" style="fill:#000000;fill-opacity:1;fill-rule:evenodd;stroke:none" id="path146"/>
      <path d="m 2494.45,1831.14 h -56.51 v -56.51 h 56.51 v 56.51" style="fill:#000000;fill-opacity:1;fill-rule:evenodd;stroke:none" id="path148"/>
      <path d="m 2634.43,1831.14 h -56.51 v -56.51 h 56.51 v 56.51" style="fill:#000000;fill-opacity:1;fill-rule:evenodd;stroke:none" id="path150"/>
      <path d="m 2564.43,1761.14 h -56.53 v -56.52 h 56.53 v 56.52" style="fill:#000000;fill-opacity:1;fill-rule:evenodd;stroke:none" id="path152"/>
      <path d="m 2494.45,1761.14 h -56.51 v -56.52 h 56.51 v 56.52" style="fill:#000000;fill-opacity:1;fill-rule:evenodd;stroke:none" id="path154"/>
      <path d="m 2634.43,1761.14 h -56.51 v -56.52 h 56.51 v 56.52" style="fill:#000000;fill-opacity:1;fill-rule:evenodd;stroke:none" id="path156"/>
      <path d="m 2507.9,1634.64 h 56.53 v 56.51 h -56.53 v -56.51" style="fill:#000000;fill-opacity:1;fill-rule:evenodd;stroke:none" id="path158"/>
      <path d="m 2437.94,1634.64 h 56.51 v 56.51 h -56.51 v -56.51" style="fill:#000000;fill-opacity:1;fill-rule:evenodd;stroke:none" id="path160"/>
      <path d="m 2577.92,1634.64 h 56.51 v 56.51 h -56.51 v -56.51" style="fill:#000000;fill-opacity:1;fill-rule:evenodd;stroke:none" id="path162"/>
      <path d="m 2564.43,1971.13 h -56.53 v -56.53 h 56.53 v 56.53" style="fill:#000000;fill-opacity:1;fill-rule:evenodd;stroke:none" id="path164"/>
      <path d="m 2494.45,1971.13 h -56.51 v -56.53 h 56.51 v 56.53" style="fill:#000000;fill-opacity:1;fill-rule:evenodd;stroke:none" id="path166"/>
      <path d="m 2634.43,1971.13 h -56.51 v -56.53 h 56.51 v 56.53" style="fill:#000000;fill-opacity:1;fill-rule:evenodd;stroke:none" id="path168"/>
      <path d="m 2564.43,1901.14 h -56.53 v -56.53 h 56.53 v 56.53" style="fill:#000000;fill-opacity:1;fill-rule:evenodd;stroke:none" id="path170"/>
      <path d="m 2494.45,1901.14 h -56.51 v -56.53 h 56.51 v 56.53" style="fill:#000000;fill-opacity:1;fill-rule:evenodd;stroke:none" id="path172"/>
      <path d="m 2634.43,1901.14 h -56.51 v -56.53 h 56.51 v 56.53" style="fill:#000000;fill-opacity:1;fill-rule:evenodd;stroke:none" id="path174"/>
      <path d="m 2494.45,2038.47 c -20.61,-5.21 -39.68,-14.12 -56.51,-26.11 v -27.75 h 56.51 v 53.86" style="fill:#000000;fill-opacity:1;fill-rule:evenodd;stroke:none" id="path176"/>
      <path d="m 2634.43,2012.36 c -16.82,11.99 -35.89,20.9 -56.51,26.11 v -53.86 h 56.51 v 27.75" style="fill:#000000;fill-opacity:1;fill-rule:evenodd;stroke:none" id="path178"/>
      <path d="m 2564.43,2041.32 c -9.21,1.56 -18.59,2.54 -28.25,2.54 -9.64,0 -19.06,-0.98 -28.28,-2.54 v -56.71 h 56.53 v 56.71" style="fill:#000000;fill-opacity:1;fill-rule:evenodd;stroke:none" id="path180"/>
      <path d="m 2507.94,1086.7 h 56.53 v 56.51 h -56.53 v -56.51" style="fill:#000000;fill-opacity:1;fill-rule:evenodd;stroke:none" id="path182"/>
      <path d="m 2577.92,1086.7 h 56.51 v 56.51 h -56.51 v -56.51" style="fill:#000000;fill-opacity:1;fill-rule:evenodd;stroke:none" id="path184"/>
      <path d="m 2437.94,1086.7 h 56.51 v 56.51 h -56.51 v -56.51" style="fill:#000000;fill-opacity:1;fill-rule:evenodd;stroke:none" id="path186"/>
      <path d="m 2507.94,1296.69 h 56.53 v 56.5 h -56.53 v -56.5" style="fill:#000000;fill-opacity:1;fill-rule:evenodd;stroke:none" id="path188"/>
      <path d="m 2577.92,1296.69 h 56.51 v 56.5 h -56.51 v -56.5" style="fill:#000000;fill-opacity:1;fill-rule:evenodd;stroke:none" id="path190"/>
      <path d="m 2437.94,1296.69 h 56.51 v 56.5 h -56.51 v -56.5" style="fill:#000000;fill-opacity:1;fill-rule:evenodd;stroke:none" id="path192"/>
      <path d="m 2507.94,1366.64 h 56.53 v 56.52 h -56.53 v -56.52" style="fill:#000000;fill-opacity:1;fill-rule:evenodd;stroke:none" id="path194"/>
      <path d="m 2577.92,1366.64 h 56.51 v 56.52 h -56.51 v -56.52" style="fill:#000000;fill-opacity:1;fill-rule:evenodd;stroke:none" id="path196"/>
      <path d="m 2437.94,1366.64 h 56.51 v 56.52 h -56.51 v -56.52" style="fill:#000000;fill-opacity:1;fill-rule:evenodd;stroke:none" id="path198"/>
      <path d="m 2507.94,1226.67 h 56.53 v 56.52 h -56.53 v -56.52" style="fill:#000000;fill-opacity:1;fill-rule:evenodd;stroke:none" id="path200"/>
      <path d="m 2577.92,1226.67 h 56.51 v 56.52 h -56.51 v -56.52" style="fill:#000000;fill-opacity:1;fill-rule:evenodd;stroke:none" id="path202"/>
      <path d="m 2437.94,1226.67 h 56.51 v 56.52 h -56.51 v -56.52" style="fill:#000000;fill-opacity:1;fill-rule:evenodd;stroke:none" id="path204"/>
      <path d="m 2507.94,1156.66 h 56.53 v 56.51 h -56.53 v -56.51" style="fill:#000000;fill-opacity:1;fill-rule:evenodd;stroke:none" id="path206"/>
      <path d="m 2577.92,1156.66 h 56.51 v 56.51 h -56.51 v -56.51" style="fill:#000000;fill-opacity:1;fill-rule:evenodd;stroke:none" id="path208"/>
      <path d="m 2437.94,1156.66 h 56.51 v 56.51 h -56.51 v -56.51" style="fill:#000000;fill-opacity:1;fill-rule:evenodd;stroke:none" id="path210"/>
      <path d="m 2919.47,1086.7 h 56.54 v 56.51 h -56.54 v -56.51" style="fill:#000000;fill-opacity:1;fill-rule:evenodd;stroke:none" id="path212"/>
      <path d="m 2989.43,1086.7 h 56.51 v 56.51 h -56.51 v -56.51" style="fill:#000000;fill-opacity:1;fill-rule:evenodd;stroke:none" id="path214"/>
      <path d="m 2849.45,1086.7 h 56.53 v 56.51 h -56.53 v -56.51" style="fill:#000000;fill-opacity:1;fill-rule:evenodd;stroke:none" id="path216"/>
      <path d="m 2919.47,1296.69 h 56.54 v 56.5 h -56.54 v -56.5" style="fill:#000000;fill-opacity:1;fill-rule:evenodd;stroke:none" id="path218"/>
      <path d="m 2989.43,1296.69 h 56.51 v 56.5 h -56.51 v -56.5" style="fill:#000000;fill-opacity:1;fill-rule:evenodd;stroke:none" id="path220"/>
      <path d="m 2849.45,1296.69 h 56.53 v 56.5 h -56.53 v -56.5" style="fill:#000000;fill-opacity:1;fill-rule:evenodd;stroke:none" id="path222"/>
      <path d="m 2919.47,1366.64 h 56.54 v 56.52 h -56.54 v -56.52" style="fill:#000000;fill-opacity:1;fill-rule:evenodd;stroke:none" id="path224"/>
      <path d="m 2989.43,1366.64 h 56.51 v 56.52 h -56.51 v -56.52" style="fill:#000000;fill-opacity:1;fill-rule:evenodd;stroke:none" id="path226"/>
      <path d="m 2849.45,1366.64 h 56.53 v 56.52 h -56.53 v -56.52" style="fill:#000000;fill-opacity:1;fill-rule:evenodd;stroke:none" id="path228"/>
      <path d="m 2919.47,1226.67 h 56.54 v 56.52 h -56.54 v -56.52" style="fill:#000000;fill-opacity:1;fill-rule:evenodd;stroke:none" id="path230"/>
      <path d="m 2989.43,1226.67 h 56.51 v 56.52 h -56.51 v -56.52" style="fill:#000000;fill-opacity:1;fill-rule:evenodd;stroke:none" id="path232"/>
      <path d="m 2849.45,1226.67 h 56.53 v 56.52 h -56.53 v -56.52" style="fill:#000000;fill-opacity:1;fill-rule:evenodd;stroke:none" id="path234"/>
      <path d="m 2919.47,1156.66 h 56.54 v 56.51 h -56.54 v -56.51" style="fill:#000000;fill-opacity:1;fill-rule:evenodd;stroke:none" id="path236"/>
      <path d="m 2989.43,1156.66 h 56.51 v 56.51 h -56.51 v -56.51" style="fill:#000000;fill-opacity:1;fill-rule:evenodd;stroke:none" id="path238"/>
      <path d="m 2849.45,1156.66 h 56.53 v 56.51 h -56.53 v -56.51" style="fill:#000000;fill-opacity:1;fill-rule:evenodd;stroke:none" id="path240"/>
      <path d="m 4083.95,1086.7 h 304 v 336.46 h -304 V 1086.7" style="fill:#000000;fill-opacity:1;fill-rule:evenodd;stroke:none" id="path242"/>
      <path d="m 3260.96,1086.7 h 303.99 v 336.46 H 3260.96 V 1086.7" style="fill:#000000;fill-opacity:1;fill-rule:evenodd;stroke:none" id="path244"/>
      <path d="m 3672.45,1086.7 h 304.01 v 336.46 H 3672.45 V 1086.7" style="fill:#000000;fill-opacity:1;fill-rule:evenodd;stroke:none" id="path246"/>
      <path d="m 6033.97,1086.7 h 304 v 336.46 h -304 V 1086.7" style="fill:#000000;fill-opacity:1;fill-rule:evenodd;stroke:none" id="path248"/>
      <path d="m 5210.98,1086.7 h 304 v 336.46 h -304 V 1086.7" style="fill:#000000;fill-opacity:1;fill-rule:evenodd;stroke:none" id="path250"/>
      <path d="m 5622.48,1086.7 h 303.99 v 336.46 H 5622.48 V 1086.7" style="fill:#000000;fill-opacity:1;fill-rule:evenodd;stroke:none" id="path252"/>
      <path d="m 4799.3,2041.53 -231.37,0.12 c 0,0 0,-0.15 0,-0.21 h -0.09 c 0,-2.6 0.16,-5.14 0.18,-7.75 -0.52,-85.86 11.92,-163.11 37.17,-233.85 5.38,-16.11 11.1,-32.04 17.65,-47.55 36.62,-87.28 95.36,-154.91 176.29,-202.93 0,0 0.1,0.07 0.17,0.09 l 0.16,-0.09 c 80.93,48.02 139.65,115.65 176.3,202.93 6.53,15.51 12.27,31.44 17.63,47.55 25.24,70.74 37.68,147.99 37.17,233.85 0.04,2.61 0.18,5.15 0.18,7.75 h -0.1 c 0,0.06 0,0.15 0,0.15 l -231.34,-0.06" style="fill:#000000;fill-opacity:1;fill-rule:evenodd;stroke:none" id="path254"/>
      <path d="m 4460.64,2096.6 h 677.29 l -338.63,209.87 z" style="fill:#000000;fill-opacity:1;fill-rule:evenodd;stroke:none" id="path256"/>
      <path d="m 4387.55,2159.21 411.38,254.95 h 0.73 l 411.35,-254.95 v -0.04 H 7680 l -867.13,537.42 -364.51,-225.9 H 3151.67 l -364.5,225.9 L 1920,2159.17 h 2467.57 l -0.02,0.04" style="fill:#000000;fill-opacity:1;fill-rule:evenodd;stroke:none" id="path258"/>
      <path d="m 2975.94,1831.14 h -56.54 v -56.51 h 56.54 v 56.51" style="fill:#000000;fill-opacity:1;fill-rule:evenodd;stroke:none" id="path260"/>
      <path d="m 2905.96,1831.14 h -56.51 v -56.51 h 56.51 v 56.51" style="fill:#000000;fill-opacity:1;fill-rule:evenodd;stroke:none" id="path262"/>
      <path d="m 3045.94,1831.14 h -56.54 v -56.51 h 56.54 v 56.51" style="fill:#000000;fill-opacity:1;fill-rule:evenodd;stroke:none" id="path264"/>
      <path d="m 2975.94,1761.14 h -56.54 v -56.52 h 56.54 v 56.52" style="fill:#000000;fill-opacity:1;fill-rule:evenodd;stroke:none" id="path266"/>
      <path d="m 2905.96,1761.14 h -56.51 v -56.52 h 56.51 v 56.52" style="fill:#000000;fill-opacity:1;fill-rule:evenodd;stroke:none" id="path268"/>
      <path d="m 3045.94,1761.14 h -56.54 v -56.52 h 56.54 v 56.52" style="fill:#000000;fill-opacity:1;fill-rule:evenodd;stroke:none" id="path270"/>
      <path d="m 2919.4,1634.64 h 56.54 v 56.51 h -56.54 v -56.51" style="fill:#000000;fill-opacity:1;fill-rule:evenodd;stroke:none" id="path272"/>
      <path d="m 2849.45,1634.64 h 56.51 v 56.51 h -56.51 v -56.51" style="fill:#000000;fill-opacity:1;fill-rule:evenodd;stroke:none" id="path274"/>
      <path d="m 2989.4,1634.64 h 56.54 v 56.51 h -56.54 v -56.51" style="fill:#000000;fill-opacity:1;fill-rule:evenodd;stroke:none" id="path276"/>
      <path d="m 2975.94,1971.13 h -56.54 v -56.53 h 56.54 v 56.53" style="fill:#000000;fill-opacity:1;fill-rule:evenodd;stroke:none" id="path278"/>
      <path d="m 2905.96,1971.13 h -56.51 v -56.53 h 56.51 v 56.53" style="fill:#000000;fill-opacity:1;fill-rule:evenodd;stroke:none" id="path280"/>
      <path d="m 3045.94,1971.13 h -56.54 v -56.53 h 56.54 v 56.53" style="fill:#000000;fill-opacity:1;fill-rule:evenodd;stroke:none" id="path282"/>
      <path d="m 2975.94,1901.14 h -56.54 v -56.53 h 56.54 v 56.53" style="fill:#000000;fill-opacity:1;fill-rule:evenodd;stroke:none" id="path284"/>
      <path d="m 2905.96,1901.14 h -56.51 v -56.53 h 56.51 v 56.53" style="fill:#000000;fill-opacity:1;fill-rule:evenodd;stroke:none" id="path286"/>
      <path d="m 3045.94,1901.14 h -56.54 v -56.53 h 56.54 v 56.53" style="fill:#000000;fill-opacity:1;fill-rule:evenodd;stroke:none" id="path288"/>
      <path d="m 2905.96,2038.47 c -20.61,-5.21 -39.7,-14.12 -56.51,-26.11 v -27.75 h 56.51 v 53.86" style="fill:#000000;fill-opacity:1;fill-rule:evenodd;stroke:none" id="path290"/>
      <path d="m 3045.94,2012.36 c -16.82,11.99 -35.91,20.9 -56.54,26.11 v -53.86 h 56.54 v 27.75" style="fill:#000000;fill-opacity:1;fill-rule:evenodd;stroke:none" id="path292"/>
      <path d="m 2975.94,2041.32 c -9.2,1.56 -18.59,2.54 -28.24,2.54 -9.66,0 -19.07,-0.98 -28.3,-2.54 v -56.71 h 56.54 v 56.71" style="fill:#000000;fill-opacity:1;fill-rule:evenodd;stroke:none" id="path294"/>
      <path d="m 3387.45,1831.14 h -56.54 v -56.51 h 56.54 v 56.51" style="fill:#000000;fill-opacity:1;fill-rule:evenodd;stroke:none" id="path296"/>
      <path d="m 3317.47,1831.14 h -56.51 v -56.51 h 56.51 v 56.51" style="fill:#000000;fill-opacity:1;fill-rule:evenodd;stroke:none" id="path298"/>
      <path d="m 3457.45,1831.14 h -56.54 v -56.51 h 56.54 v 56.51" style="fill:#000000;fill-opacity:1;fill-rule:evenodd;stroke:none" id="path300"/>
      <path d="m 3387.45,1761.14 h -56.54 v -56.52 h 56.54 v 56.52" style="fill:#000000;fill-opacity:1;fill-rule:evenodd;stroke:none" id="path302"/>
      <path d="m 3317.47,1761.14 h -56.51 v -56.52 h 56.51 v 56.52" style="fill:#000000;fill-opacity:1;fill-rule:evenodd;stroke:none" id="path304"/>
      <path d="m 3457.45,1761.14 h -56.54 v -56.52 h 56.54 v 56.52" style="fill:#000000;fill-opacity:1;fill-rule:evenodd;stroke:none" id="path306"/>
      <path d="m 3330.91,1634.64 h 56.54 v 56.51 h -56.54 v -56.51" style="fill:#000000;fill-opacity:1;fill-rule:evenodd;stroke:none" id="path308"/>
      <path d="m 3260.96,1634.64 h 56.51 v 56.51 h -56.51 v -56.51" style="fill:#000000;fill-opacity:1;fill-rule:evenodd;stroke:none" id="path310"/>
      <path d="m 3400.91,1634.64 h 56.54 v 56.51 h -56.54 v -56.51" style="fill:#000000;fill-opacity:1;fill-rule:evenodd;stroke:none" id="path312"/>
      <path d="m 3387.45,1971.13 h -56.54 v -56.53 h 56.54 v 56.53" style="fill:#000000;fill-opacity:1;fill-rule:evenodd;stroke:none" id="path314"/>
      <path d="m 3317.47,1971.13 h -56.51 v -56.53 h 56.51 v 56.53" style="fill:#000000;fill-opacity:1;fill-rule:evenodd;stroke:none" id="path316"/>
      <path d="m 3457.45,1971.13 h -56.54 v -56.53 h 56.54 v 56.53" style="fill:#000000;fill-opacity:1;fill-rule:evenodd;stroke:none" id="path318"/>
      <path d="m 3387.45,1901.14 h -56.54 v -56.53 h 56.54 v 56.53" style="fill:#000000;fill-opacity:1;fill-rule:evenodd;stroke:none" id="path320"/>
      <path d="m 3317.47,1901.14 h -56.51 v -56.53 h 56.51 v 56.53" style="fill:#000000;fill-opacity:1;fill-rule:evenodd;stroke:none" id="path322"/>
      <path d="m 3457.45,1901.14 h -56.54 v -56.53 h 56.54 v 56.53" style="fill:#000000;fill-opacity:1;fill-rule:evenodd;stroke:none" id="path324"/>
      <path d="m 3317.47,2038.47 c -20.62,-5.21 -39.71,-14.12 -56.51,-26.11 v -27.75 h 56.51 v 53.86" style="fill:#000000;fill-opacity:1;fill-rule:evenodd;stroke:none" id="path326"/>
      <path d="m 3457.45,2012.36 c -16.82,11.99 -35.9,20.9 -56.54,26.11 v -53.86 h 56.54 v 27.75" style="fill:#000000;fill-opacity:1;fill-rule:evenodd;stroke:none" id="path328"/>
      <path d="m 3387.45,2041.32 c -9.21,1.56 -18.59,2.54 -28.27,2.54 -9.63,0 -19.04,-0.98 -28.27,-2.54 v -56.71 h 56.54 v 56.71" style="fill:#000000;fill-opacity:1;fill-rule:evenodd;stroke:none" id="path330"/>
      <path d="m 3798.94,1831.14 h -56.52 v -56.51 h 56.52 v 56.51" style="fill:#000000;fill-opacity:1;fill-rule:evenodd;stroke:none" id="path332"/>
      <path d="m 3728.97,1831.14 h -56.52 v -56.51 h 56.52 v 56.51" style="fill:#000000;fill-opacity:1;fill-rule:evenodd;stroke:none" id="path334"/>
      <path d="m 3868.96,1831.14 h -56.54 v -56.51 h 56.54 v 56.51" style="fill:#000000;fill-opacity:1;fill-rule:evenodd;stroke:none" id="path336"/>
      <path d="m 3798.94,1761.14 h -56.52 v -56.52 h 56.52 v 56.52" style="fill:#000000;fill-opacity:1;fill-rule:evenodd;stroke:none" id="path338"/>
      <path d="m 3728.97,1761.14 h -56.52 v -56.52 h 56.52 v 56.52" style="fill:#000000;fill-opacity:1;fill-rule:evenodd;stroke:none" id="path340"/>
      <path d="m 3868.96,1761.14 h -56.54 v -56.52 h 56.54 v 56.52" style="fill:#000000;fill-opacity:1;fill-rule:evenodd;stroke:none" id="path342"/>
      <path d="m 3742.42,1634.64 h 56.52 v 56.51 h -56.52 v -56.51" style="fill:#000000;fill-opacity:1;fill-rule:evenodd;stroke:none" id="path344"/>
      <path d="m 3672.45,1634.64 h 56.52 v 56.51 h -56.52 v -56.51" style="fill:#000000;fill-opacity:1;fill-rule:evenodd;stroke:none" id="path346"/>
      <path d="m 3812.42,1634.64 h 56.54 v 56.51 h -56.54 v -56.51" style="fill:#000000;fill-opacity:1;fill-rule:evenodd;stroke:none" id="path348"/>
      <path d="m 3798.94,1971.13 h -56.52 v -56.53 h 56.52 v 56.53" style="fill:#000000;fill-opacity:1;fill-rule:evenodd;stroke:none" id="path350"/>
      <path d="m 3728.97,1971.13 h -56.52 v -56.53 h 56.52 v 56.53" style="fill:#000000;fill-opacity:1;fill-rule:evenodd;stroke:none" id="path352"/>
      <path d="m 3868.96,1971.13 h -56.54 v -56.53 h 56.54 v 56.53" style="fill:#000000;fill-opacity:1;fill-rule:evenodd;stroke:none" id="path354"/>
      <path d="m 3798.94,1901.14 h -56.52 v -56.53 h 56.52 v 56.53" style="fill:#000000;fill-opacity:1;fill-rule:evenodd;stroke:none" id="path356"/>
      <path d="m 3728.97,1901.14 h -56.52 v -56.53 h 56.52 v 56.53" style="fill:#000000;fill-opacity:1;fill-rule:evenodd;stroke:none" id="path358"/>
      <path d="m 3868.96,1901.14 h -56.54 v -56.53 h 56.54 v 56.53" style="fill:#000000;fill-opacity:1;fill-rule:evenodd;stroke:none" id="path360"/>
      <path d="m 3728.97,2038.47 c -20.62,-5.21 -39.7,-14.12 -56.52,-26.11 v -27.75 h 56.52 v 53.86" style="fill:#000000;fill-opacity:1;fill-rule:evenodd;stroke:none" id="path362"/>
      <path d="m 3868.96,2012.36 c -16.84,11.99 -35.92,20.9 -56.54,26.11 v -53.86 h 56.54 v 27.75" style="fill:#000000;fill-opacity:1;fill-rule:evenodd;stroke:none" id="path364"/>
      <path d="m 3798.94,2041.32 c -9.21,1.56 -18.59,2.54 -28.24,2.54 -9.65,0 -19.07,-0.98 -28.28,-2.54 v -56.71 h 56.52 v 56.71" style="fill:#000000;fill-opacity:1;fill-rule:evenodd;stroke:none" id="path366"/>
      <path d="m 4210.45,1831.14 h -56.54 v -56.51 h 56.54 v 56.51" style="fill:#000000;fill-opacity:1;fill-rule:evenodd;stroke:none" id="path368"/>
      <path d="m 4140.47,1831.14 h -56.52 v -56.51 h 56.52 v 56.51" style="fill:#000000;fill-opacity:1;fill-rule:evenodd;stroke:none" id="path370"/>
      <path d="m 4280.46,1831.14 h -56.53 v -56.51 h 56.53 v 56.51" style="fill:#000000;fill-opacity:1;fill-rule:evenodd;stroke:none" id="path372"/>
      <path d="m 4210.45,1761.14 h -56.54 v -56.52 h 56.54 v 56.52" style="fill:#000000;fill-opacity:1;fill-rule:evenodd;stroke:none" id="path374"/>
      <path d="m 4140.47,1761.14 h -56.52 v -56.52 h 56.52 v 56.52" style="fill:#000000;fill-opacity:1;fill-rule:evenodd;stroke:none" id="path376"/>
      <path d="m 4280.46,1761.14 h -56.53 v -56.52 h 56.53 v 56.52" style="fill:#000000;fill-opacity:1;fill-rule:evenodd;stroke:none" id="path378"/>
      <path d="m 4153.91,1634.64 h 56.54 v 56.51 h -56.54 v -56.51" style="fill:#000000;fill-opacity:1;fill-rule:evenodd;stroke:none" id="path380"/>
      <path d="m 4083.95,1634.64 h 56.52 v 56.51 h -56.52 v -56.51" style="fill:#000000;fill-opacity:1;fill-rule:evenodd;stroke:none" id="path382"/>
      <path d="m 4223.93,1634.64 h 56.53 v 56.51 h -56.53 v -56.51" style="fill:#000000;fill-opacity:1;fill-rule:evenodd;stroke:none" id="path384"/>
      <path d="m 4210.45,1971.13 h -56.54 v -56.53 h 56.54 v 56.53" style="fill:#000000;fill-opacity:1;fill-rule:evenodd;stroke:none" id="path386"/>
      <path d="m 4140.47,1971.13 h -56.52 v -56.53 h 56.52 v 56.53" style="fill:#000000;fill-opacity:1;fill-rule:evenodd;stroke:none" id="path388"/>
      <path d="m 4280.46,1971.13 h -56.53 v -56.53 h 56.53 v 56.53" style="fill:#000000;fill-opacity:1;fill-rule:evenodd;stroke:none" id="path390"/>
      <path d="m 4210.45,1901.14 h -56.54 v -56.53 h 56.54 v 56.53" style="fill:#000000;fill-opacity:1;fill-rule:evenodd;stroke:none" id="path392"/>
      <path d="m 4140.47,1901.14 h -56.52 v -56.53 h 56.52 v 56.53" style="fill:#000000;fill-opacity:1;fill-rule:evenodd;stroke:none" id="path394"/>
      <path d="m 4280.46,1901.14 h -56.53 v -56.53 h 56.53 v 56.53" style="fill:#000000;fill-opacity:1;fill-rule:evenodd;stroke:none" id="path396"/>
      <path d="m 4140.47,2038.47 c -20.61,-5.21 -39.69,-14.12 -56.52,-26.11 v -27.75 h 56.52 v 53.86" style="fill:#000000;fill-opacity:1;fill-rule:evenodd;stroke:none" id="path398"/>
      <path d="m 4280.46,2012.36 c -16.83,11.99 -35.91,20.9 -56.53,26.11 v -53.86 h 56.53 v 27.75" style="fill:#000000;fill-opacity:1;fill-rule:evenodd;stroke:none" id="path400"/>
      <path d="m 4210.45,2041.32 c -9.21,1.56 -18.58,2.54 -28.24,2.54 -9.66,0 -19.07,-0.98 -28.3,-2.54 v -56.71 h 56.54 v 56.71" style="fill:#000000;fill-opacity:1;fill-rule:evenodd;stroke:none" id="path402"/>
      <path d="m 5444.96,1831.14 h -56.53 v -56.51 h 56.53 v 56.51" style="fill:#000000;fill-opacity:1;fill-rule:evenodd;stroke:none" id="path404"/>
      <path d="m 5374.98,1831.14 h -56.5 v -56.51 h 56.5 v 56.51" style="fill:#000000;fill-opacity:1;fill-rule:evenodd;stroke:none" id="path406"/>
      <path d="m 5514.98,1831.14 h -56.54 v -56.51 h 56.54 v 56.51" style="fill:#000000;fill-opacity:1;fill-rule:evenodd;stroke:none" id="path408"/>
      <path d="m 5444.96,1761.14 h -56.53 v -56.52 h 56.53 v 56.52" style="fill:#000000;fill-opacity:1;fill-rule:evenodd;stroke:none" id="path410"/>
      <path d="m 5374.98,1761.14 h -56.5 v -56.52 h 56.5 v 56.52" style="fill:#000000;fill-opacity:1;fill-rule:evenodd;stroke:none" id="path412"/>
      <path d="m 5514.98,1761.14 h -56.54 v -56.52 h 56.54 v 56.52" style="fill:#000000;fill-opacity:1;fill-rule:evenodd;stroke:none" id="path414"/>
      <path d="m 5388.43,1634.64 h 56.53 v 56.51 h -56.53 v -56.51" style="fill:#000000;fill-opacity:1;fill-rule:evenodd;stroke:none" id="path416"/>
      <path d="m 5318.48,1634.64 h 56.5 v 56.51 h -56.5 v -56.51" style="fill:#000000;fill-opacity:1;fill-rule:evenodd;stroke:none" id="path418"/>
      <path d="m 5458.44,1634.64 h 56.54 v 56.51 h -56.54 v -56.51" style="fill:#000000;fill-opacity:1;fill-rule:evenodd;stroke:none" id="path420"/>
      <path d="m 5444.96,1971.13 h -56.53 v -56.53 h 56.53 v 56.53" style="fill:#000000;fill-opacity:1;fill-rule:evenodd;stroke:none" id="path422"/>
      <path d="m 5374.98,1971.13 h -56.5 v -56.53 h 56.5 v 56.53" style="fill:#000000;fill-opacity:1;fill-rule:evenodd;stroke:none" id="path424"/>
      <path d="m 5514.98,1971.13 h -56.54 v -56.53 h 56.54 v 56.53" style="fill:#000000;fill-opacity:1;fill-rule:evenodd;stroke:none" id="path426"/>
      <path d="m 5444.96,1901.14 h -56.53 v -56.53 h 56.53 v 56.53" style="fill:#000000;fill-opacity:1;fill-rule:evenodd;stroke:none" id="path428"/>
      <path d="m 5374.98,1901.14 h -56.5 v -56.53 h 56.5 v 56.53" style="fill:#000000;fill-opacity:1;fill-rule:evenodd;stroke:none" id="path430"/>
      <path d="m 5514.98,1901.14 h -56.54 v -56.53 h 56.54 v 56.53" style="fill:#000000;fill-opacity:1;fill-rule:evenodd;stroke:none" id="path432"/>
      <path d="m 5374.98,2038.47 c -20.62,-5.21 -39.69,-14.12 -56.5,-26.11 v -27.75 h 56.5 v 53.86" style="fill:#000000;fill-opacity:1;fill-rule:evenodd;stroke:none" id="path434"/>
      <path d="m 5514.98,2012.36 c -16.84,11.99 -35.92,20.9 -56.54,26.11 v -53.86 h 56.54 v 27.75" style="fill:#000000;fill-opacity:1;fill-rule:evenodd;stroke:none" id="path436"/>
      <path d="m 5444.96,2041.32 c -9.21,1.56 -18.58,2.54 -28.24,2.54 -9.66,0 -19.06,-0.98 -28.29,-2.54 v -56.71 h 56.53 v 56.71" style="fill:#000000;fill-opacity:1;fill-rule:evenodd;stroke:none" id="path438"/>
      <path d="m 5856.46,1831.14 h -56.53 v -56.51 h 56.53 v 56.51" style="fill:#000000;fill-opacity:1;fill-rule:evenodd;stroke:none" id="path440"/>
      <path d="m 5786.49,1831.14 h -56.52 v -56.51 h 56.52 v 56.51" style="fill:#000000;fill-opacity:1;fill-rule:evenodd;stroke:none" id="path442"/>
      <path d="m 5926.47,1831.14 h -56.52 v -56.51 h 56.52 v 56.51" style="fill:#000000;fill-opacity:1;fill-rule:evenodd;stroke:none" id="path444"/>
      <path d="m 5856.46,1761.14 h -56.53 v -56.52 h 56.53 v 56.52" style="fill:#000000;fill-opacity:1;fill-rule:evenodd;stroke:none" id="path446"/>
      <path d="m 5786.49,1761.14 h -56.52 v -56.52 h 56.52 v 56.52" style="fill:#000000;fill-opacity:1;fill-rule:evenodd;stroke:none" id="path448"/>
      <path d="m 5926.47,1761.14 h -56.52 v -56.52 h 56.52 v 56.52" style="fill:#000000;fill-opacity:1;fill-rule:evenodd;stroke:none" id="path450"/>
      <path d="m 5799.93,1634.64 h 56.53 v 56.51 h -56.53 v -56.51" style="fill:#000000;fill-opacity:1;fill-rule:evenodd;stroke:none" id="path452"/>
      <path d="m 5729.97,1634.64 h 56.52 v 56.51 h -56.52 v -56.51" style="fill:#000000;fill-opacity:1;fill-rule:evenodd;stroke:none" id="path454"/>
      <path d="m 5869.95,1634.64 h 56.52 v 56.51 h -56.52 v -56.51" style="fill:#000000;fill-opacity:1;fill-rule:evenodd;stroke:none" id="path456"/>
      <path d="m 5856.46,1971.13 h -56.53 v -56.53 h 56.53 v 56.53" style="fill:#000000;fill-opacity:1;fill-rule:evenodd;stroke:none" id="path458"/>
      <path d="m 5786.49,1971.13 h -56.52 v -56.53 h 56.52 v 56.53" style="fill:#000000;fill-opacity:1;fill-rule:evenodd;stroke:none" id="path460"/>
      <path d="m 5926.47,1971.13 h -56.52 v -56.53 h 56.52 v 56.53" style="fill:#000000;fill-opacity:1;fill-rule:evenodd;stroke:none" id="path462"/>
      <path d="m 5856.46,1901.14 h -56.53 v -56.53 h 56.53 v 56.53" style="fill:#000000;fill-opacity:1;fill-rule:evenodd;stroke:none" id="path464"/>
      <path d="m 5786.49,1901.14 h -56.52 v -56.53 h 56.52 v 56.53" style="fill:#000000;fill-opacity:1;fill-rule:evenodd;stroke:none" id="path466"/>
      <path d="m 5926.47,1901.14 h -56.52 v -56.53 h 56.52 v 56.53" style="fill:#000000;fill-opacity:1;fill-rule:evenodd;stroke:none" id="path468"/>
      <path d="m 5786.49,2038.47 c -20.62,-5.21 -39.7,-14.12 -56.52,-26.11 v -27.75 h 56.52 v 53.86" style="fill:#000000;fill-opacity:1;fill-rule:evenodd;stroke:none" id="path470"/>
      <path d="m 5926.47,2012.36 c -16.83,11.99 -35.9,20.9 -56.52,26.11 v -53.86 h 56.52 v 27.75" style="fill:#000000;fill-opacity:1;fill-rule:evenodd;stroke:none" id="path472"/>
      <path d="m 5856.46,2041.32 c -9.19,1.56 -18.59,2.54 -28.25,2.54 -9.64,0 -19.05,-0.98 -28.28,-2.54 v -56.71 h 56.53 v 56.71" style="fill:#000000;fill-opacity:1;fill-rule:evenodd;stroke:none" id="path474"/>
      <path d="m 6267.97,1831.14 h -56.54 v -56.51 h 56.54 v 56.51" style="fill:#000000;fill-opacity:1;fill-rule:evenodd;stroke:none" id="path476"/>
      <path d="m 6198,1831.14 h -56.53 v -56.51 H 6198 v 56.51" style="fill:#000000;fill-opacity:1;fill-rule:evenodd;stroke:none" id="path478"/>
      <path d="m 6337.97,1831.14 h -56.52 v -56.51 h 56.52 v 56.51" style="fill:#000000;fill-opacity:1;fill-rule:evenodd;stroke:none" id="path480"/>
      <path d="m 6267.97,1761.14 h -56.54 v -56.52 h 56.54 v 56.52" style="fill:#000000;fill-opacity:1;fill-rule:evenodd;stroke:none" id="path482"/>
      <path d="m 6198,1761.14 h -56.53 v -56.52 H 6198 v 56.52" style="fill:#000000;fill-opacity:1;fill-rule:evenodd;stroke:none" id="path484"/>
      <path d="m 6337.97,1761.14 h -56.52 v -56.52 h 56.52 v 56.52" style="fill:#000000;fill-opacity:1;fill-rule:evenodd;stroke:none" id="path486"/>
      <path d="m 6211.43,1634.64 h 56.54 v 56.51 h -56.54 v -56.51" style="fill:#000000;fill-opacity:1;fill-rule:evenodd;stroke:none" id="path488"/>
      <path d="M 6141.47,1634.64 H 6198 v 56.51 h -56.53 v -56.51" style="fill:#000000;fill-opacity:1;fill-rule:evenodd;stroke:none" id="path490"/>
      <path d="m 6281.45,1634.64 h 56.52 v 56.51 h -56.52 v -56.51" style="fill:#000000;fill-opacity:1;fill-rule:evenodd;stroke:none" id="path492"/>
      <path d="m 6267.97,1971.13 h -56.54 v -56.53 h 56.54 v 56.53" style="fill:#000000;fill-opacity:1;fill-rule:evenodd;stroke:none" id="path494"/>
      <path d="m 6198,1971.13 h -56.53 V 1914.6 H 6198 v 56.53" style="fill:#000000;fill-opacity:1;fill-rule:evenodd;stroke:none" id="path496"/>
      <path d="m 6337.97,1971.13 h -56.52 v -56.53 h 56.52 v 56.53" style="fill:#000000;fill-opacity:1;fill-rule:evenodd;stroke:none" id="path498"/>
      <path d="m 6267.97,1901.14 h -56.54 v -56.53 h 56.54 v 56.53" style="fill:#000000;fill-opacity:1;fill-rule:evenodd;stroke:none" id="path500"/>
      <path d="m 6198,1901.14 h -56.53 v -56.53 H 6198 v 56.53" style="fill:#000000;fill-opacity:1;fill-rule:evenodd;stroke:none" id="path502"/>
      <path d="m 6337.97,1901.14 h -56.52 v -56.53 h 56.52 v 56.53" style="fill:#000000;fill-opacity:1;fill-rule:evenodd;stroke:none" id="path504"/>
      <path d="m 6198,2038.47 c -20.62,-5.21 -39.71,-14.12 -56.53,-26.11 v -27.75 H 6198 v 53.86" style="fill:#000000;fill-opacity:1;fill-rule:evenodd;stroke:none" id="path506"/>
      <path d="m 6337.97,2012.36 c -16.83,11.99 -35.89,20.9 -56.52,26.11 v -53.86 h 56.52 v 27.75" style="fill:#000000;fill-opacity:1;fill-rule:evenodd;stroke:none" id="path508"/>
      <path d="m 6267.97,2041.32 c -9.2,1.56 -18.59,2.54 -28.24,2.54 -9.66,0 -19.06,-0.98 -28.3,-2.54 v -56.71 h 56.54 v 56.71" style="fill:#000000;fill-opacity:1;fill-rule:evenodd;stroke:none" id="path510"/>
      <path d="m 6679.47,1831.14 h -56.53 v -56.51 h 56.53 v 56.51" style="fill:#000000;fill-opacity:1;fill-rule:evenodd;stroke:none" id="path512"/>
      <path d="m 6609.49,1831.14 h -56.5 v -56.51 h 56.5 v 56.51" style="fill:#000000;fill-opacity:1;fill-rule:evenodd;stroke:none" id="path514"/>
      <path d="m 6749.47,1831.14 h -56.53 v -56.51 h 56.53 v 56.51" style="fill:#000000;fill-opacity:1;fill-rule:evenodd;stroke:none" id="path516"/>
      <path d="m 6679.47,1761.14 h -56.53 v -56.52 h 56.53 v 56.52" style="fill:#000000;fill-opacity:1;fill-rule:evenodd;stroke:none" id="path518"/>
      <path d="m 6609.49,1761.14 h -56.5 v -56.52 h 56.5 v 56.52" style="fill:#000000;fill-opacity:1;fill-rule:evenodd;stroke:none" id="path520"/>
      <path d="m 6749.47,1761.14 h -56.53 v -56.52 h 56.53 v 56.52" style="fill:#000000;fill-opacity:1;fill-rule:evenodd;stroke:none" id="path522"/>
      <path d="m 6622.94,1634.64 h 56.53 v 56.51 h -56.53 v -56.51" style="fill:#000000;fill-opacity:1;fill-rule:evenodd;stroke:none" id="path524"/>
      <path d="m 6552.99,1634.64 h 56.5 v 56.51 h -56.5 v -56.51" style="fill:#000000;fill-opacity:1;fill-rule:evenodd;stroke:none" id="path526"/>
      <path d="m 6692.94,1634.64 h 56.53 v 56.51 h -56.53 v -56.51" style="fill:#000000;fill-opacity:1;fill-rule:evenodd;stroke:none" id="path528"/>
      <path d="m 6679.47,1971.13 h -56.53 v -56.53 h 56.53 v 56.53" style="fill:#000000;fill-opacity:1;fill-rule:evenodd;stroke:none" id="path530"/>
      <path d="m 6609.49,1971.13 h -56.5 v -56.53 h 56.5 v 56.53" style="fill:#000000;fill-opacity:1;fill-rule:evenodd;stroke:none" id="path532"/>
      <path d="m 6749.47,1971.13 h -56.53 v -56.53 h 56.53 v 56.53" style="fill:#000000;fill-opacity:1;fill-rule:evenodd;stroke:none" id="path534"/>
      <path d="m 6679.47,1901.14 h -56.53 v -56.53 h 56.53 v 56.53" style="fill:#000000;fill-opacity:1;fill-rule:evenodd;stroke:none" id="path536"/>
      <path d="m 6609.49,1901.14 h -56.5 v -56.53 h 56.5 v 56.53" style="fill:#000000;fill-opacity:1;fill-rule:evenodd;stroke:none" id="path538"/>
      <path d="m 6749.47,1901.14 h -56.53 v -56.53 h 56.53 v 56.53" style="fill:#000000;fill-opacity:1;fill-rule:evenodd;stroke:none" id="path540"/>
      <path d="m 6609.49,2038.47 c -20.6,-5.21 -39.69,-14.12 -56.5,-26.11 v -27.75 h 56.5 v 53.86" style="fill:#000000;fill-opacity:1;fill-rule:evenodd;stroke:none" id="path542"/>
      <path d="m 6749.47,2012.36 c -16.81,11.99 -35.9,20.9 -56.53,26.11 v -53.86 h 56.53 v 27.75" style="fill:#000000;fill-opacity:1;fill-rule:evenodd;stroke:none" id="path544"/>
      <path d="m 6679.47,2041.32 c -9.21,1.56 -18.58,2.54 -28.24,2.54 -9.66,0 -19.06,-0.98 -28.29,-2.54 v -56.71 h 56.53 v 56.71" style="fill:#000000;fill-opacity:1;fill-rule:evenodd;stroke:none" id="path546"/>
      <path d="m 7090.97,1831.14 h -56.53 v -56.51 h 56.53 v 56.51" style="fill:#000000;fill-opacity:1;fill-rule:evenodd;stroke:none" id="path548"/>
      <path d="m 7021.01,1831.14 h -56.51 v -56.51 h 56.51 v 56.51" style="fill:#000000;fill-opacity:1;fill-rule:evenodd;stroke:none" id="path550"/>
      <path d="m 7160.99,1831.14 h -56.55 v -56.51 h 56.55 v 56.51" style="fill:#000000;fill-opacity:1;fill-rule:evenodd;stroke:none" id="path552"/>
      <path d="m 7090.97,1761.14 h -56.53 v -56.52 h 56.53 v 56.52" style="fill:#000000;fill-opacity:1;fill-rule:evenodd;stroke:none" id="path554"/>
      <path d="m 7021.01,1761.14 h -56.51 v -56.52 h 56.51 v 56.52" style="fill:#000000;fill-opacity:1;fill-rule:evenodd;stroke:none" id="path556"/>
      <path d="m 7160.99,1761.14 h -56.55 v -56.52 h 56.55 v 56.52" style="fill:#000000;fill-opacity:1;fill-rule:evenodd;stroke:none" id="path558"/>
      <path d="m 7034.44,1634.64 h 56.53 v 56.51 h -56.53 v -56.51" style="fill:#000000;fill-opacity:1;fill-rule:evenodd;stroke:none" id="path560"/>
      <path d="m 6964.5,1634.64 h 56.51 v 56.51 h -56.51 v -56.51" style="fill:#000000;fill-opacity:1;fill-rule:evenodd;stroke:none" id="path562"/>
      <path d="m 7104.44,1634.64 h 56.55 v 56.51 h -56.55 v -56.51" style="fill:#000000;fill-opacity:1;fill-rule:evenodd;stroke:none" id="path564"/>
      <path d="m 7090.97,1971.13 h -56.53 v -56.53 h 56.53 v 56.53" style="fill:#000000;fill-opacity:1;fill-rule:evenodd;stroke:none" id="path566"/>
      <path d="m 7021.01,1971.13 h -56.51 v -56.53 h 56.51 v 56.53" style="fill:#000000;fill-opacity:1;fill-rule:evenodd;stroke:none" id="path568"/>
      <path d="m 7160.99,1971.13 h -56.55 v -56.53 h 56.55 v 56.53" style="fill:#000000;fill-opacity:1;fill-rule:evenodd;stroke:none" id="path570"/>
      <path d="m 7090.97,1901.14 h -56.53 v -56.53 h 56.53 v 56.53" style="fill:#000000;fill-opacity:1;fill-rule:evenodd;stroke:none" id="path572"/>
      <path d="m 7021.01,1901.14 h -56.51 v -56.53 h 56.51 v 56.53" style="fill:#000000;fill-opacity:1;fill-rule:evenodd;stroke:none" id="path574"/>
      <path d="m 7160.99,1901.14 h -56.55 v -56.53 h 56.55 v 56.53" style="fill:#000000;fill-opacity:1;fill-rule:evenodd;stroke:none" id="path576"/>
      <path d="m 7021.01,2038.47 c -20.63,-5.21 -39.71,-14.12 -56.51,-26.11 v -27.75 h 56.51 v 53.86" style="fill:#000000;fill-opacity:1;fill-rule:evenodd;stroke:none" id="path578"/>
      <path d="m 7160.99,2012.36 c -16.82,11.99 -35.92,20.9 -56.55,26.11 v -53.86 h 56.55 v 27.75" style="fill:#000000;fill-opacity:1;fill-rule:evenodd;stroke:none" id="path580"/>
      <path d="m 7090.97,2041.32 c -9.19,1.56 -18.59,2.54 -28.25,2.54 -9.63,0 -19.05,-0.98 -28.28,-2.54 v -56.71 h 56.53 v 56.71" style="fill:#000000;fill-opacity:1;fill-rule:evenodd;stroke:none" id="path582"/>
      <path d="m 3491.06,3333.73 h 15.1 c 26.28,0 47.69,-18.59 48.85,-44.53 v -364.91 c -0.22,-127.6 -82.6,-212.67 -206.18,-212.67 -117.83,0 -196.4,89.84 -196.4,224.6 v 353.1 c 1.11,25.89 22.51,44.43 48.75,44.43 h 15.1 v 9.25 h -187.91 v -9.25 h 15.07 c 26.74,0 48.42,-19.2 48.91,-45.82 v -365.29 c 0,-144.1 102.63,-240.14 256.55,-240.14 149.61,0 249.34,96.69 249.34,241.75 v 365.8 c 1.62,25.49 22.85,43.7 48.86,43.7 h 15.07 v 9.25 l -171.11,-0.02 v -9.25" style="fill:#000000;fill-opacity:1;fill-rule:nonzero;stroke:none" id="path584"/>
      <path d="m 4192.95,3333.75 h 17.07 c 31.21,0 56.52,-25 57.12,-56.06 v -458.77 l -503.77,537.92 h -9.13 c 0,0 8.52,-52.41 8.52,-115.57 v -480.58 c -0.61,-31.04 -25.91,-56.03 -57.1,-56.03 h -17.09 l -0.13,-9.24 h 190.55 l -0.15,9.24 h -17.06 c -30.95,0 -56.13,24.64 -57.08,55.34 v 460.6 l 504.49,-538.12 h 8.38 c 0,0 -8.43,58.42 -8.43,118.01 v 477.96 c 0.99,30.71 26.13,55.3 57.09,55.3 h 17.08 l 0.13,9.25 h -190.62 l 0.13,-9.25" style="fill:#000000;fill-opacity:1;fill-rule:nonzero;stroke:none" id="path586"/>
      <path d="m 4652.26,2704.7 c -32.38,0 -58.66,25.95 -59.26,58.17 v 513.36 c 0.92,31.95 27.06,57.58 59.26,57.58 h 11.69 l 0.15,9.25 h -202.38 l 0.16,-9.25 h 11.7 c 32.25,0 58.44,-25.73 59.25,-57.77 v -513.17 c -0.61,-32.22 -26.89,-58.17 -59.27,-58.17 h -11.69 l -0.17,-9.25 h 202.41 l -0.16,9.25 h -11.69" style="fill:#000000;fill-opacity:1;fill-rule:nonzero;stroke:none" id="path588"/>
      <path d="m 5035.75,3342.98 h -270.32 l 0.15,-9.19 h 11.71 c 30.61,0 58.92,-23.2 58.92,-52.99 v -517.95 c -0.61,-32.22 -26.89,-58.17 -59.25,-58.17 h -11.71 l -0.17,-9.25 h 202.39 l -0.13,9.25 h -11.71 c -32.38,0 -58.65,25.95 -59.26,58.17 v 238.04 h 157.29 c 24.34,-0.96 43.77,-20.97 43.77,-45.54 v -13.64 l 9.04,-0.1 V 3088 l -9.04,-0.12 v -13.62 c 0,-24.9 -19.96,-45.1 -44.72,-45.58 h -156.36 v 286 h 195.69 c 24.81,-0.48 44.75,-20.69 44.75,-45.6 v -13.62 l 9.25,-0.12 v 61.4 15.97 l -0.02,27.1 c -17.15,-7.23 -70.39,-16.44 -110.27,-16.83" style="fill:#000000;fill-opacity:1;fill-rule:nonzero;stroke:none" id="path590"/>
      <path d="M 5520.17,2723.75 H 5387.5 v 277.16 h 157.31 c 24.32,-0.96 43.77,-20.96 43.77,-45.54 v -13.64 l 9.03,-0.09 v 146.38 l -9.03,-0.11 v -13.62 c 0,-24.92 -19.98,-45.12 -44.73,-45.59 H 5387.5 v 286.01 h 188.59 c 28.9,-1.78 51.8,-25.73 51.8,-55.08 v -16.48 l 9.33,-0.14 v 74.28 15.44 27.08 c -17.13,-7.23 -70.38,-16.44 -110.27,-16.81 h -270.32 l 0.15,-9.21 h 11.71 c 30.6,0 55.78,-23.2 58.91,-52.97 v -517.97 c -0.59,-32.22 -26.86,-58.17 -59.25,-58.17 h -11.7 l -0.15,-9.25 h 383.49 l 53.85,149.45 h -9.25 c -28.55,-70.43 -66.19,-121.13 -164.22,-121.13" style="fill:#000000;fill-opacity:1;fill-rule:nonzero;stroke:none" id="path592"/>
      <path d="m 5883.61,3136.52 c -29.14,27.01 -37.22,61.17 -37.22,85.29 0,56.38 45.62,106.37 113.79,106.37 57.62,0 104.27,-36.07 104.04,-95.24 h 8.93 v 102.52 10.99 h -36.67 c -24.57,5.35 -55.04,9.48 -79.32,9.48 -105.47,0 -162.57,-78.37 -162.57,-156.32 0,-35.83 12.72,-80.49 50.13,-114.64 l 177.2,-164.56 c 23.1,-21.46 36.28,-50.05 36.28,-86.21 0,-73.92 -56.4,-120.21 -123.94,-123.97 -82.34,-4.57 -142.7,56.44 -133.38,151.76 h -8.14 c -14.09,-41.49 -17.59,-100.4 -10.7,-128.97 36.35,-37.59 111.29,-50.54 156.62,-50.54 106.38,0 173.21,70.67 173.21,172.98 0,37.38 -9.47,78.63 -46.48,112.79 l -181.78,168.27" style="fill:#000000;fill-opacity:1;fill-rule:nonzero;stroke:none" id="path594"/>
      <path d="m 6432.07,3342.96 -241.02,0.02 0.14,-9.19 h 11.7 c 30.73,0 55.97,-23.38 58.98,-53.31 v -517.65 c -0.63,-32.22 -26.91,-58.17 -59.29,-58.17 h -11.71 l -0.15,-9.24 h 202.49 l -0.14,9.24 h -11.71 c -32.37,0 -58.63,25.95 -59.24,58.17 v 552.38 h 106.63 c 78.7,0 122.4,-56.64 124.72,-141.61 0.56,-20.44 -1.8,-42.76 -5.92,-55.79 -41.74,-132.49 -193.91,-99.67 -193.91,-99.67 l 0.1,-8.74 c 116.07,-61.16 269.1,13.91 269.1,154.89 0,110.78 -72.5,178.67 -190.77,178.67" style="fill:#000000;fill-opacity:1;fill-rule:nonzero;stroke:none" id="path596"/>
    </g>
  </g>
</svg>