<?xml version="1.0" encoding="UTF-8" standalone="no"?>
<!-- Created with Inkscape (http://www.inkscape.org/) -->

<svg
   version="1.1"
   id="svg2"
   width="1253.3333"
   height="772.8667"
   viewBox="0 0 1253.3333 772.8667"
   sodipodi:docname="Unifesp_secundaria_policromia.eps"
   xmlns:inkscape="http://www.inkscape.org/namespaces/inkscape"
   xmlns:sodipodi="http://sodipodi.sourceforge.net/DTD/sodipodi-0.dtd"
   xmlns="http://www.w3.org/2000/svg"
   xmlns:svg="http://www.w3.org/2000/svg">
  <defs
     id="defs6" />
  <sodipodi:namedview
     id="namedview4"
     pagecolor="#ffffff"
     bordercolor="#000000"
     borderopacity="0.25"
     inkscape:showpageshadow="2"
     inkscape:pageopacity="0.0"
     inkscape:pagecheckerboard="0"
     inkscape:deskcolor="#d1d1d1" />
  <g
     id="g8"
     inkscape:groupmode="layer"
     inkscape:label="ink_ext_XXXXXX"
     transform="matrix(1.3333333,0,0,-1.3333333,0,772.86667)">
    <g
       id="g10"
       transform="scale(0.1)">
      <path
         d="m 5370.68,1776.81 v -0.1 h -1343.1 v 95.45 H 669.82 v -184.5 -3.12 h 8058.63 v 3.12 184.5 H 5370.68 v -95.35"
         style="fill:#255735;fill-opacity:1;fill-rule:evenodd;stroke:none"
         id="path12" />
      <path
         d="m 5370.68,1933.35 h 3357.76 v 92.25 H 5370.68 v -92.25"
         style="fill:#255735;fill-opacity:1;fill-rule:evenodd;stroke:none"
         id="path14" />
      <path
         d="m 669.82,1933.35 h 3357.74 v 92.25 H 669.82 v -92.25"
         style="fill:#255735;fill-opacity:1;fill-rule:evenodd;stroke:none"
         id="path16" />
      <path
         d="m 5370.68,2697.13 h 3357.76 v 92.27 H 5370.68 v -92.27"
         style="fill:#255735;fill-opacity:1;fill-rule:evenodd;stroke:none"
         id="path18" />
      <path
         d="m 4271.74,2697.13 h 854.23 v 92.27 h -854.23 v -92.27"
         style="fill:#255735;fill-opacity:1;fill-rule:evenodd;stroke:none"
         id="path20" />
      <path
         d="m 4271.74,1856.27 h 92.23 v 779.67 h -92.23 v -779.67"
         style="fill:#255735;fill-opacity:1;fill-rule:evenodd;stroke:none"
         id="path22" />
      <path
         d="m 5033.7,1856.27 h 92.27 v 779.67 h -92.27 v -779.67"
         style="fill:#255735;fill-opacity:1;fill-rule:evenodd;stroke:none"
         id="path24" />
      <path
         d="m 669.82,2697.13 h 3357.74 v 92.27 H 669.82 v -92.27"
         style="fill:#255735;fill-opacity:1;fill-rule:evenodd;stroke:none"
         id="path26" />
      <path
         d="m 4595.58,2086.81 h 92.24 v 92.22 h -92.24 v -92.22"
         style="fill:#255735;fill-opacity:1;fill-rule:evenodd;stroke:none"
         id="path28" />
      <path
         d="m 4481.4,2086.81 h 92.21 v 92.22 h -92.21 v -92.22"
         style="fill:#255735;fill-opacity:1;fill-rule:evenodd;stroke:none"
         id="path30" />
      <path
         d="m 4709.84,2086.81 h 92.24 v 92.22 h -92.24 v -92.22"
         style="fill:#255735;fill-opacity:1;fill-rule:evenodd;stroke:none"
         id="path32" />
      <path
         d="m 4824.07,2086.81 h 92.27 v 92.22 h -92.27 v -92.22"
         style="fill:#255735;fill-opacity:1;fill-rule:evenodd;stroke:none"
         id="path34" />
      <path
         d="m 4595.58,1972.57 h 92.24 v 92.24 h -92.24 v -92.24"
         style="fill:#255735;fill-opacity:1;fill-rule:evenodd;stroke:none"
         id="path36" />
      <path
         d="m 4481.4,1972.57 h 92.21 v 92.24 h -92.21 v -92.24"
         style="fill:#255735;fill-opacity:1;fill-rule:evenodd;stroke:none"
         id="path38" />
      <path
         d="m 4709.84,1972.57 h 92.24 v 92.24 h -92.24 v -92.24"
         style="fill:#255735;fill-opacity:1;fill-rule:evenodd;stroke:none"
         id="path40" />
      <path
         d="m 4824.07,1972.57 h 92.27 v 92.24 h -92.27 v -92.24"
         style="fill:#255735;fill-opacity:1;fill-rule:evenodd;stroke:none"
         id="path42" />
      <path
         d="m 4595.58,1858.33 h 92.24 v 92.25 h -92.24 v -92.25"
         style="fill:#255735;fill-opacity:1;fill-rule:evenodd;stroke:none"
         id="path44" />
      <path
         d="m 4481.4,1858.33 h 92.21 v 92.25 h -92.21 v -92.25"
         style="fill:#255735;fill-opacity:1;fill-rule:evenodd;stroke:none"
         id="path46" />
      <path
         d="m 4709.84,1858.33 h 92.24 v 92.25 h -92.24 v -92.25"
         style="fill:#255735;fill-opacity:1;fill-rule:evenodd;stroke:none"
         id="path48" />
      <path
         d="m 4824.07,1858.33 h 92.27 v 92.25 h -92.27 v -92.25"
         style="fill:#255735;fill-opacity:1;fill-rule:evenodd;stroke:none"
         id="path50" />
      <path
         d="m 4595.58,2429.48 h 92.24 v 92.24 h -92.24 v -92.24"
         style="fill:#255735;fill-opacity:1;fill-rule:evenodd;stroke:none"
         id="path52" />
      <path
         d="m 4481.4,2429.48 h 92.21 v 92.24 h -92.21 v -92.24"
         style="fill:#255735;fill-opacity:1;fill-rule:evenodd;stroke:none"
         id="path54" />
      <path
         d="m 4709.84,2429.48 h 92.24 v 92.24 h -92.24 v -92.24"
         style="fill:#255735;fill-opacity:1;fill-rule:evenodd;stroke:none"
         id="path56" />
      <path
         d="m 4824.07,2429.48 h 92.27 v 92.24 h -92.27 v -92.24"
         style="fill:#255735;fill-opacity:1;fill-rule:evenodd;stroke:none"
         id="path58" />
      <path
         d="m 4595.58,2543.7 h 92.24 v 92.24 h -92.24 v -92.24"
         style="fill:#255735;fill-opacity:1;fill-rule:evenodd;stroke:none"
         id="path60" />
      <path
         d="m 4481.4,2543.7 h 92.21 v 92.24 h -92.21 v -92.24"
         style="fill:#255735;fill-opacity:1;fill-rule:evenodd;stroke:none"
         id="path62" />
      <path
         d="m 4709.84,2543.7 h 92.24 v 92.24 h -92.24 v -92.24"
         style="fill:#255735;fill-opacity:1;fill-rule:evenodd;stroke:none"
         id="path64" />
      <path
         d="m 4824.07,2543.7 h 92.27 v 92.24 h -92.27 v -92.24"
         style="fill:#255735;fill-opacity:1;fill-rule:evenodd;stroke:none"
         id="path66" />
      <path
         d="m 4595.58,2315.24 h 92.24 v 92.24 h -92.24 v -92.24"
         style="fill:#255735;fill-opacity:1;fill-rule:evenodd;stroke:none"
         id="path68" />
      <path
         d="m 4481.4,2315.24 h 92.21 v 92.24 h -92.21 v -92.24"
         style="fill:#255735;fill-opacity:1;fill-rule:evenodd;stroke:none"
         id="path70" />
      <path
         d="m 4709.84,2315.24 h 92.24 v 92.24 h -92.24 v -92.24"
         style="fill:#255735;fill-opacity:1;fill-rule:evenodd;stroke:none"
         id="path72" />
      <path
         d="m 4824.07,2315.24 h 92.27 v 92.24 h -92.27 v -92.24"
         style="fill:#255735;fill-opacity:1;fill-rule:evenodd;stroke:none"
         id="path74" />
      <path
         d="m 4595.58,2201.02 h 92.24 v 92.23 h -92.24 v -92.23"
         style="fill:#255735;fill-opacity:1;fill-rule:evenodd;stroke:none"
         id="path76" />
      <path
         d="m 4481.4,2201.02 h 92.21 v 92.23 h -92.21 v -92.23"
         style="fill:#255735;fill-opacity:1;fill-rule:evenodd;stroke:none"
         id="path78" />
      <path
         d="m 4709.84,2201.02 h 92.24 v 92.23 h -92.24 v -92.23"
         style="fill:#255735;fill-opacity:1;fill-rule:evenodd;stroke:none"
         id="path80" />
      <path
         d="m 4824.07,2201.02 h 92.27 v 92.23 h -92.27 v -92.23"
         style="fill:#255735;fill-opacity:1;fill-rule:evenodd;stroke:none"
         id="path82" />
      <path
         d="m 8346.49,2086.85 h 92.27 v 92.22 h -92.27 v -92.22"
         style="fill:#255735;fill-opacity:1;fill-rule:evenodd;stroke:none"
         id="path84" />
      <path
         d="m 8232.29,2086.85 h 92.27 v 92.22 h -92.27 v -92.22"
         style="fill:#255735;fill-opacity:1;fill-rule:evenodd;stroke:none"
         id="path86" />
      <path
         d="M 8460.76,2086.85 H 8553 v 92.22 h -92.24 v -92.22"
         style="fill:#255735;fill-opacity:1;fill-rule:evenodd;stroke:none"
         id="path88" />
      <path
         d="m 8346.49,2429.53 h 92.27 v 92.22 h -92.27 v -92.22"
         style="fill:#255735;fill-opacity:1;fill-rule:evenodd;stroke:none"
         id="path90" />
      <path
         d="m 8232.29,2429.53 h 92.27 v 92.22 h -92.27 v -92.22"
         style="fill:#255735;fill-opacity:1;fill-rule:evenodd;stroke:none"
         id="path92" />
      <path
         d="M 8460.76,2429.53 H 8553 v 92.22 h -92.24 v -92.22"
         style="fill:#255735;fill-opacity:1;fill-rule:evenodd;stroke:none"
         id="path94" />
      <path
         d="m 8438.76,2635.94 h -92.27 v -92.24 h 92.27 v 92.24"
         style="fill:#255735;fill-opacity:1;fill-rule:evenodd;stroke:none"
         id="path96" />
      <path
         d="m 8324.56,2635.94 h -92.27 v -92.24 h 92.27 v 92.24"
         style="fill:#255735;fill-opacity:1;fill-rule:evenodd;stroke:none"
         id="path98" />
      <path
         d="m 8553,2635.94 h -92.24 V 2543.7 H 8553 v 92.24"
         style="fill:#255735;fill-opacity:1;fill-rule:evenodd;stroke:none"
         id="path100" />
      <path
         d="m 8346.49,2315.27 h 92.27 v 92.24 h -92.27 v -92.24"
         style="fill:#255735;fill-opacity:1;fill-rule:evenodd;stroke:none"
         id="path102" />
      <path
         d="m 8232.29,2315.27 h 92.27 v 92.24 h -92.27 v -92.24"
         style="fill:#255735;fill-opacity:1;fill-rule:evenodd;stroke:none"
         id="path104" />
      <path
         d="M 8460.76,2315.27 H 8553 v 92.24 h -92.24 v -92.24"
         style="fill:#255735;fill-opacity:1;fill-rule:evenodd;stroke:none"
         id="path106" />
      <path
         d="m 8346.49,2201.02 h 92.27 v 92.23 h -92.27 v -92.23"
         style="fill:#255735;fill-opacity:1;fill-rule:evenodd;stroke:none"
         id="path108" />
      <path
         d="m 8232.29,2201.02 h 92.27 v 92.23 h -92.27 v -92.23"
         style="fill:#255735;fill-opacity:1;fill-rule:evenodd;stroke:none"
         id="path110" />
      <path
         d="M 8460.76,2201.02 H 8553 v 92.23 h -92.24 v -92.23"
         style="fill:#255735;fill-opacity:1;fill-rule:evenodd;stroke:none"
         id="path112" />
      <path
         d="m 7674.93,2086.85 h 92.28 v 92.22 h -92.28 v -92.22"
         style="fill:#255735;fill-opacity:1;fill-rule:evenodd;stroke:none"
         id="path114" />
      <path
         d="m 7560.75,2086.85 h 92.27 v 92.22 h -92.27 v -92.22"
         style="fill:#255735;fill-opacity:1;fill-rule:evenodd;stroke:none"
         id="path116" />
      <path
         d="m 7789.17,2086.85 h 92.27 v 92.22 h -92.27 v -92.22"
         style="fill:#255735;fill-opacity:1;fill-rule:evenodd;stroke:none"
         id="path118" />
      <path
         d="m 7674.93,2429.53 h 92.28 v 92.22 h -92.28 v -92.22"
         style="fill:#255735;fill-opacity:1;fill-rule:evenodd;stroke:none"
         id="path120" />
      <path
         d="m 7560.75,2429.53 h 92.27 v 92.22 h -92.27 v -92.22"
         style="fill:#255735;fill-opacity:1;fill-rule:evenodd;stroke:none"
         id="path122" />
      <path
         d="m 7789.17,2429.53 h 92.27 v 92.22 h -92.27 v -92.22"
         style="fill:#255735;fill-opacity:1;fill-rule:evenodd;stroke:none"
         id="path124" />
      <path
         d="m 7767.21,2635.94 h -92.28 v -92.24 h 92.28 v 92.24"
         style="fill:#255735;fill-opacity:1;fill-rule:evenodd;stroke:none"
         id="path126" />
      <path
         d="m 7653.02,2635.94 h -92.27 v -92.24 h 92.27 v 92.24"
         style="fill:#255735;fill-opacity:1;fill-rule:evenodd;stroke:none"
         id="path128" />
      <path
         d="m 7881.44,2635.94 h -92.27 v -92.24 h 92.27 v 92.24"
         style="fill:#255735;fill-opacity:1;fill-rule:evenodd;stroke:none"
         id="path130" />
      <path
         d="m 7674.93,2315.27 h 92.28 v 92.24 h -92.28 v -92.24"
         style="fill:#255735;fill-opacity:1;fill-rule:evenodd;stroke:none"
         id="path132" />
      <path
         d="m 7560.75,2315.27 h 92.27 v 92.24 h -92.27 v -92.24"
         style="fill:#255735;fill-opacity:1;fill-rule:evenodd;stroke:none"
         id="path134" />
      <path
         d="m 7789.17,2315.27 h 92.27 v 92.24 h -92.27 v -92.24"
         style="fill:#255735;fill-opacity:1;fill-rule:evenodd;stroke:none"
         id="path136" />
      <path
         d="m 7674.93,2201.02 h 92.28 v 92.23 h -92.28 v -92.23"
         style="fill:#255735;fill-opacity:1;fill-rule:evenodd;stroke:none"
         id="path138" />
      <path
         d="m 7560.75,2201.02 h 92.27 v 92.23 h -92.27 v -92.23"
         style="fill:#255735;fill-opacity:1;fill-rule:evenodd;stroke:none"
         id="path140" />
      <path
         d="m 7789.17,2201.02 h 92.27 v 92.23 h -92.27 v -92.23"
         style="fill:#255735;fill-opacity:1;fill-rule:evenodd;stroke:none"
         id="path142" />
      <path
         d="m 1051.67,3301.74 h -92.256 v -92.23 h 92.256 v 92.23"
         style="fill:#255735;fill-opacity:1;fill-rule:evenodd;stroke:none"
         id="path144" />
      <path
         d="M 937.477,3301.74 H 845.25 v -92.23 h 92.227 v 92.23"
         style="fill:#255735;fill-opacity:1;fill-rule:evenodd;stroke:none"
         id="path146" />
      <path
         d="m 1165.92,3301.74 h -92.24 v -92.23 h 92.24 v 92.23"
         style="fill:#255735;fill-opacity:1;fill-rule:evenodd;stroke:none"
         id="path148" />
      <path
         d="m 1051.67,3187.49 h -92.256 v -92.23 h 92.256 v 92.23"
         style="fill:#255735;fill-opacity:1;fill-rule:evenodd;stroke:none"
         id="path150" />
      <path
         d="M 937.477,3187.49 H 845.25 v -92.23 h 92.227 v 92.23"
         style="fill:#255735;fill-opacity:1;fill-rule:evenodd;stroke:none"
         id="path152" />
      <path
         d="m 1165.92,3187.49 h -92.24 v -92.23 h 92.24 v 92.23"
         style="fill:#255735;fill-opacity:1;fill-rule:evenodd;stroke:none"
         id="path154" />
      <path
         d="m 959.414,2981.05 h 92.256 v 92.23 h -92.256 v -92.23"
         style="fill:#255735;fill-opacity:1;fill-rule:evenodd;stroke:none"
         id="path156" />
      <path
         d="m 845.25,2981.05 h 92.227 v 92.23 H 845.25 v -92.23"
         style="fill:#255735;fill-opacity:1;fill-rule:evenodd;stroke:none"
         id="path158" />
      <path
         d="m 1073.68,2981.05 h 92.24 v 92.23 h -92.24 v -92.23"
         style="fill:#255735;fill-opacity:1;fill-rule:evenodd;stroke:none"
         id="path160" />
      <path
         d="m 1051.67,3530.19 h -92.256 v -92.26 h 92.256 v 92.26"
         style="fill:#255735;fill-opacity:1;fill-rule:evenodd;stroke:none"
         id="path162" />
      <path
         d="M 937.477,3530.19 H 845.25 v -92.26 h 92.227 v 92.26"
         style="fill:#255735;fill-opacity:1;fill-rule:evenodd;stroke:none"
         id="path164" />
      <path
         d="m 1165.92,3530.19 h -92.24 v -92.26 h 92.24 v 92.26"
         style="fill:#255735;fill-opacity:1;fill-rule:evenodd;stroke:none"
         id="path166" />
      <path
         d="m 1051.67,3415.97 h -92.256 v -92.25 h 92.256 v 92.25"
         style="fill:#255735;fill-opacity:1;fill-rule:evenodd;stroke:none"
         id="path168" />
      <path
         d="M 937.477,3415.97 H 845.25 v -92.25 h 92.227 v 92.25"
         style="fill:#255735;fill-opacity:1;fill-rule:evenodd;stroke:none"
         id="path170" />
      <path
         d="m 1165.92,3415.97 h -92.24 v -92.25 h 92.24 v 92.25"
         style="fill:#255735;fill-opacity:1;fill-rule:evenodd;stroke:none"
         id="path172" />
      <path
         d="m 937.477,3640.08 c -33.645,-8.5 -64.774,-23.05 -92.227,-42.61 v -45.29 h 92.227 v 87.9"
         style="fill:#255735;fill-opacity:1;fill-rule:evenodd;stroke:none"
         id="path174" />
      <path
         d="m 1165.92,3597.47 c -27.46,19.56 -58.59,34.11 -92.24,42.61 v -87.9 h 92.24 v 45.29"
         style="fill:#255735;fill-opacity:1;fill-rule:evenodd;stroke:none"
         id="path176" />
      <path
         d="m 1051.67,3644.73 c -15.02,2.55 -30.34,4.14 -46.09,4.14 -15.736,0 -31.107,-1.59 -46.166,-4.14 v -92.55 h 92.256 v 92.55"
         style="fill:#255735;fill-opacity:1;fill-rule:evenodd;stroke:none"
         id="path178" />
      <path
         d="m 959.48,2086.85 h 92.25 v 92.22 h -92.25 v -92.22"
         style="fill:#255735;fill-opacity:1;fill-rule:evenodd;stroke:none"
         id="path180" />
      <path
         d="m 1073.68,2086.85 h 92.24 v 92.22 h -92.24 v -92.22"
         style="fill:#255735;fill-opacity:1;fill-rule:evenodd;stroke:none"
         id="path182" />
      <path
         d="m 845.25,2086.85 h 92.227 v 92.22 H 845.25 v -92.22"
         style="fill:#255735;fill-opacity:1;fill-rule:evenodd;stroke:none"
         id="path184" />
      <path
         d="m 959.48,2429.53 h 92.25 v 92.22 h -92.25 v -92.22"
         style="fill:#255735;fill-opacity:1;fill-rule:evenodd;stroke:none"
         id="path186" />
      <path
         d="m 1073.68,2429.53 h 92.24 v 92.22 h -92.24 v -92.22"
         style="fill:#255735;fill-opacity:1;fill-rule:evenodd;stroke:none"
         id="path188" />
      <path
         d="m 845.25,2429.53 h 92.227 v 92.22 H 845.25 v -92.22"
         style="fill:#255735;fill-opacity:1;fill-rule:evenodd;stroke:none"
         id="path190" />
      <path
         d="m 1051.73,2635.94 h -92.25 v -92.24 h 92.25 v 92.24"
         style="fill:#255735;fill-opacity:1;fill-rule:evenodd;stroke:none"
         id="path192" />
      <path
         d="m 1165.92,2635.94 h -92.24 v -92.24 h 92.24 v 92.24"
         style="fill:#255735;fill-opacity:1;fill-rule:evenodd;stroke:none"
         id="path194" />
      <path
         d="M 937.477,2635.94 H 845.25 v -92.24 h 92.227 v 92.24"
         style="fill:#255735;fill-opacity:1;fill-rule:evenodd;stroke:none"
         id="path196" />
      <path
         d="m 959.48,2315.27 h 92.25 v 92.24 h -92.25 v -92.24"
         style="fill:#255735;fill-opacity:1;fill-rule:evenodd;stroke:none"
         id="path198" />
      <path
         d="m 1073.68,2315.27 h 92.24 v 92.24 h -92.24 v -92.24"
         style="fill:#255735;fill-opacity:1;fill-rule:evenodd;stroke:none"
         id="path200" />
      <path
         d="m 845.25,2315.27 h 92.227 v 92.24 H 845.25 v -92.24"
         style="fill:#255735;fill-opacity:1;fill-rule:evenodd;stroke:none"
         id="path202" />
      <path
         d="m 959.48,2201.02 h 92.25 v 92.23 h -92.25 v -92.23"
         style="fill:#255735;fill-opacity:1;fill-rule:evenodd;stroke:none"
         id="path204" />
      <path
         d="m 1073.68,2201.02 h 92.24 v 92.23 h -92.24 v -92.23"
         style="fill:#255735;fill-opacity:1;fill-rule:evenodd;stroke:none"
         id="path206" />
      <path
         d="m 845.25,2201.02 h 92.227 v 92.23 H 845.25 v -92.23"
         style="fill:#255735;fill-opacity:1;fill-rule:evenodd;stroke:none"
         id="path208" />
      <path
         d="m 1631.07,2086.85 h 92.26 v 92.22 h -92.26 v -92.22"
         style="fill:#255735;fill-opacity:1;fill-rule:evenodd;stroke:none"
         id="path210" />
      <path
         d="m 1745.25,2086.85 h 92.22 v 92.22 h -92.22 v -92.22"
         style="fill:#255735;fill-opacity:1;fill-rule:evenodd;stroke:none"
         id="path212" />
      <path
         d="m 1516.81,2086.85 h 92.25 v 92.22 h -92.25 v -92.22"
         style="fill:#255735;fill-opacity:1;fill-rule:evenodd;stroke:none"
         id="path214" />
      <path
         d="m 1631.07,2429.53 h 92.26 v 92.22 h -92.26 v -92.22"
         style="fill:#255735;fill-opacity:1;fill-rule:evenodd;stroke:none"
         id="path216" />
      <path
         d="m 1745.25,2429.53 h 92.22 v 92.22 h -92.22 v -92.22"
         style="fill:#255735;fill-opacity:1;fill-rule:evenodd;stroke:none"
         id="path218" />
      <path
         d="m 1516.81,2429.53 h 92.25 v 92.22 h -92.25 v -92.22"
         style="fill:#255735;fill-opacity:1;fill-rule:evenodd;stroke:none"
         id="path220" />
      <path
         d="m 1723.33,2635.94 h -92.26 v -92.24 h 92.26 v 92.24"
         style="fill:#255735;fill-opacity:1;fill-rule:evenodd;stroke:none"
         id="path222" />
      <path
         d="m 1837.47,2635.94 h -92.22 v -92.24 h 92.22 v 92.24"
         style="fill:#255735;fill-opacity:1;fill-rule:evenodd;stroke:none"
         id="path224" />
      <path
         d="m 1609.06,2635.94 h -92.25 v -92.24 h 92.25 v 92.24"
         style="fill:#255735;fill-opacity:1;fill-rule:evenodd;stroke:none"
         id="path226" />
      <path
         d="m 1631.07,2315.27 h 92.26 v 92.24 h -92.26 v -92.24"
         style="fill:#255735;fill-opacity:1;fill-rule:evenodd;stroke:none"
         id="path228" />
      <path
         d="m 1745.25,2315.27 h 92.22 v 92.24 h -92.22 v -92.24"
         style="fill:#255735;fill-opacity:1;fill-rule:evenodd;stroke:none"
         id="path230" />
      <path
         d="m 1516.81,2315.27 h 92.25 v 92.24 h -92.25 v -92.24"
         style="fill:#255735;fill-opacity:1;fill-rule:evenodd;stroke:none"
         id="path232" />
      <path
         d="m 1631.07,2201.02 h 92.26 v 92.23 h -92.26 v -92.23"
         style="fill:#255735;fill-opacity:1;fill-rule:evenodd;stroke:none"
         id="path234" />
      <path
         d="m 1745.25,2201.02 h 92.22 v 92.23 h -92.22 v -92.23"
         style="fill:#255735;fill-opacity:1;fill-rule:evenodd;stroke:none"
         id="path236" />
      <path
         d="m 1516.81,2201.02 h 92.25 v 92.23 h -92.25 v -92.23"
         style="fill:#255735;fill-opacity:1;fill-rule:evenodd;stroke:none"
         id="path238" />
      <path
         d="m 3531.44,2086.85 h 496.12 v 549.09 h -496.12 v -549.09"
         style="fill:#255735;fill-opacity:1;fill-rule:evenodd;stroke:none"
         id="path240" />
      <path
         d="m 2188.37,2635.94 v -549.09 h 496.09 v 549.09 h -496.09"
         style="fill:#255735;fill-opacity:1;fill-rule:evenodd;stroke:none"
         id="path242" />
      <path
         d="m 2859.91,2635.94 v -549.09 h 496.12 v 549.09 h -496.12"
         style="fill:#255735;fill-opacity:1;fill-rule:evenodd;stroke:none"
         id="path244" />
      <path
         d="m 6713.78,2635.94 v -549.09 h 496.09 v 549.09 h -496.09"
         style="fill:#255735;fill-opacity:1;fill-rule:evenodd;stroke:none"
         id="path246" />
      <path
         d="m 5866.81,2635.94 h -496.13 v -549.09 h 496.13 v 549.09"
         style="fill:#255735;fill-opacity:1;fill-rule:evenodd;stroke:none"
         id="path248" />
      <path
         d="m 6042.25,2635.94 v -549.09 h 496.09 v 549.09 h -496.09"
         style="fill:#255735;fill-opacity:1;fill-rule:evenodd;stroke:none"
         id="path250" />
      <path
         d="m 4698.85,3645.09 -377.57,0.17 c 0,0 0,-0.22 0,-0.34 h -0.16 c 0,-4.24 0.27,-8.39 0.3,-12.63 -0.84,-140.13 19.45,-266.2 60.66,-381.63 8.77,-26.3 18.11,-52.29 28.8,-77.61 59.77,-142.44 155.63,-252.8 287.7,-331.18 l 0.27,0.16 0.27,-0.16 c 132.07,78.38 227.9,188.74 287.71,331.18 10.66,25.32 20.03,51.31 28.77,77.61 41.21,115.43 61.5,241.5 60.66,381.63 0.06,4.24 0.29,8.39 0.29,12.63 h -0.15 c 0,0.12 0,0.25 0,0.25 l -377.55,-0.08"
         style="fill:#255735;fill-opacity:1;fill-rule:evenodd;stroke:none"
         id="path252" />
      <path
         d="m 4146.2,3734.94 h 1105.28 l -552.63,342.5 z"
         style="fill:#255735;fill-opacity:1;fill-rule:evenodd;stroke:none"
         id="path254" />
      <path
         d="m 4026.91,3837.13 671.35,416.05 h 1.19 l 671.29,-416.05 v -0.07 H 9400 L 7984.9,4714.1 7390.04,4345.45 H 2010.01 L 1415.18,4714.1 0,3837.06 h 4026.94 l -0.03,0.07"
         style="fill:#255735;fill-opacity:1;fill-rule:evenodd;stroke:none"
         id="path256" />
      <path
         d="m 1723.23,3301.74 h -92.27 v -92.23 h 92.27 v 92.23"
         style="fill:#255735;fill-opacity:1;fill-rule:evenodd;stroke:none"
         id="path258" />
      <path
         d="m 1609.03,3301.74 h -92.22 v -92.23 h 92.22 v 92.23"
         style="fill:#255735;fill-opacity:1;fill-rule:evenodd;stroke:none"
         id="path260" />
      <path
         d="m 1837.47,3301.74 h -92.27 v -92.23 h 92.27 v 92.23"
         style="fill:#255735;fill-opacity:1;fill-rule:evenodd;stroke:none"
         id="path262" />
      <path
         d="m 1723.23,3187.49 h -92.27 v -92.23 h 92.27 v 92.23"
         style="fill:#255735;fill-opacity:1;fill-rule:evenodd;stroke:none"
         id="path264" />
      <path
         d="m 1609.03,3187.49 h -92.22 v -92.23 h 92.22 v 92.23"
         style="fill:#255735;fill-opacity:1;fill-rule:evenodd;stroke:none"
         id="path266" />
      <path
         d="m 1837.47,3187.49 h -92.27 v -92.23 h 92.27 v 92.23"
         style="fill:#255735;fill-opacity:1;fill-rule:evenodd;stroke:none"
         id="path268" />
      <path
         d="m 1630.96,2981.05 h 92.27 v 92.23 h -92.27 v -92.23"
         style="fill:#255735;fill-opacity:1;fill-rule:evenodd;stroke:none"
         id="path270" />
      <path
         d="m 1516.81,2981.05 h 92.22 v 92.23 h -92.22 v -92.23"
         style="fill:#255735;fill-opacity:1;fill-rule:evenodd;stroke:none"
         id="path272" />
      <path
         d="m 1745.2,2981.05 h 92.27 v 92.23 h -92.27 v -92.23"
         style="fill:#255735;fill-opacity:1;fill-rule:evenodd;stroke:none"
         id="path274" />
      <path
         d="m 1723.23,3530.19 h -92.27 v -92.26 h 92.27 v 92.26"
         style="fill:#255735;fill-opacity:1;fill-rule:evenodd;stroke:none"
         id="path276" />
      <path
         d="m 1609.03,3530.19 h -92.22 v -92.26 h 92.22 v 92.26"
         style="fill:#255735;fill-opacity:1;fill-rule:evenodd;stroke:none"
         id="path278" />
      <path
         d="m 1837.47,3530.19 h -92.27 v -92.26 h 92.27 v 92.26"
         style="fill:#255735;fill-opacity:1;fill-rule:evenodd;stroke:none"
         id="path280" />
      <path
         d="m 1723.23,3415.97 h -92.27 v -92.25 h 92.27 v 92.25"
         style="fill:#255735;fill-opacity:1;fill-rule:evenodd;stroke:none"
         id="path282" />
      <path
         d="m 1609.03,3415.97 h -92.22 v -92.25 h 92.22 v 92.25"
         style="fill:#255735;fill-opacity:1;fill-rule:evenodd;stroke:none"
         id="path284" />
      <path
         d="m 1837.47,3415.97 h -92.27 v -92.25 h 92.27 v 92.25"
         style="fill:#255735;fill-opacity:1;fill-rule:evenodd;stroke:none"
         id="path286" />
      <path
         d="m 1609.03,3640.08 c -33.63,-8.5 -64.79,-23.05 -92.22,-42.61 v -45.29 h 92.22 v 87.9"
         style="fill:#255735;fill-opacity:1;fill-rule:evenodd;stroke:none"
         id="path288" />
      <path
         d="m 1837.47,3597.47 c -27.45,19.56 -58.59,34.11 -92.27,42.61 v -87.9 h 92.27 v 45.29"
         style="fill:#255735;fill-opacity:1;fill-rule:evenodd;stroke:none"
         id="path290" />
      <path
         d="m 1723.23,3644.73 c -15.01,2.55 -30.33,4.14 -46.09,4.14 -15.76,0 -31.1,-1.59 -46.18,-4.14 v -92.55 h 92.27 v 92.55"
         style="fill:#255735;fill-opacity:1;fill-rule:evenodd;stroke:none"
         id="path292" />
      <path
         d="m 2394.79,3301.74 h -92.27 v -92.23 h 92.27 v 92.23"
         style="fill:#255735;fill-opacity:1;fill-rule:evenodd;stroke:none"
         id="path294" />
      <path
         d="m 2280.59,3301.74 h -92.22 v -92.23 h 92.22 v 92.23"
         style="fill:#255735;fill-opacity:1;fill-rule:evenodd;stroke:none"
         id="path296" />
      <path
         d="m 2509.02,3301.74 h -92.26 v -92.23 h 92.26 v 92.23"
         style="fill:#255735;fill-opacity:1;fill-rule:evenodd;stroke:none"
         id="path298" />
      <path
         d="m 2394.79,3187.49 h -92.27 v -92.23 h 92.27 v 92.23"
         style="fill:#255735;fill-opacity:1;fill-rule:evenodd;stroke:none"
         id="path300" />
      <path
         d="m 2280.59,3187.49 h -92.22 v -92.23 h 92.22 v 92.23"
         style="fill:#255735;fill-opacity:1;fill-rule:evenodd;stroke:none"
         id="path302" />
      <path
         d="m 2509.02,3187.49 h -92.26 v -92.23 h 92.26 v 92.23"
         style="fill:#255735;fill-opacity:1;fill-rule:evenodd;stroke:none"
         id="path304" />
      <path
         d="m 2302.52,2981.05 h 92.27 v 92.23 h -92.27 v -92.23"
         style="fill:#255735;fill-opacity:1;fill-rule:evenodd;stroke:none"
         id="path306" />
      <path
         d="m 2188.37,2981.05 h 92.22 v 92.23 h -92.22 v -92.23"
         style="fill:#255735;fill-opacity:1;fill-rule:evenodd;stroke:none"
         id="path308" />
      <path
         d="m 2416.76,2981.05 h 92.26 v 92.23 h -92.26 v -92.23"
         style="fill:#255735;fill-opacity:1;fill-rule:evenodd;stroke:none"
         id="path310" />
      <path
         d="m 2394.79,3530.19 h -92.27 v -92.26 h 92.27 v 92.26"
         style="fill:#255735;fill-opacity:1;fill-rule:evenodd;stroke:none"
         id="path312" />
      <path
         d="m 2280.59,3530.19 h -92.22 v -92.26 h 92.22 v 92.26"
         style="fill:#255735;fill-opacity:1;fill-rule:evenodd;stroke:none"
         id="path314" />
      <path
         d="m 2509.02,3530.19 h -92.26 v -92.26 h 92.26 v 92.26"
         style="fill:#255735;fill-opacity:1;fill-rule:evenodd;stroke:none"
         id="path316" />
      <path
         d="m 2394.79,3415.97 h -92.27 v -92.25 h 92.27 v 92.25"
         style="fill:#255735;fill-opacity:1;fill-rule:evenodd;stroke:none"
         id="path318" />
      <path
         d="m 2280.59,3415.97 h -92.22 v -92.25 h 92.22 v 92.25"
         style="fill:#255735;fill-opacity:1;fill-rule:evenodd;stroke:none"
         id="path320" />
      <path
         d="m 2509.02,3415.97 h -92.26 v -92.25 h 92.26 v 92.25"
         style="fill:#255735;fill-opacity:1;fill-rule:evenodd;stroke:none"
         id="path322" />
      <path
         d="m 2280.59,3640.08 c -33.66,-8.5 -64.8,-23.05 -92.22,-42.61 v -45.29 h 92.22 v 87.9"
         style="fill:#255735;fill-opacity:1;fill-rule:evenodd;stroke:none"
         id="path324" />
      <path
         d="m 2509.02,3597.47 c -27.44,19.56 -58.58,34.11 -92.26,42.61 v -87.9 h 92.26 v 45.29"
         style="fill:#255735;fill-opacity:1;fill-rule:evenodd;stroke:none"
         id="path326" />
      <path
         d="m 2394.79,3644.73 c -15.03,2.55 -30.33,4.14 -46.12,4.14 -15.73,0 -31.09,-1.59 -46.15,-4.14 v -92.55 h 92.27 v 92.55"
         style="fill:#255735;fill-opacity:1;fill-rule:evenodd;stroke:none"
         id="path328" />
      <path
         d="m 3066.32,3301.74 h -92.23 v -92.23 h 92.23 v 92.23"
         style="fill:#255735;fill-opacity:1;fill-rule:evenodd;stroke:none"
         id="path330" />
      <path
         d="m 2952.14,3301.74 h -92.23 v -92.23 h 92.23 v 92.23"
         style="fill:#255735;fill-opacity:1;fill-rule:evenodd;stroke:none"
         id="path332" />
      <path
         d="m 3180.59,3301.74 h -92.27 v -92.23 h 92.27 v 92.23"
         style="fill:#255735;fill-opacity:1;fill-rule:evenodd;stroke:none"
         id="path334" />
      <path
         d="m 3066.32,3187.49 h -92.23 v -92.23 h 92.23 v 92.23"
         style="fill:#255735;fill-opacity:1;fill-rule:evenodd;stroke:none"
         id="path336" />
      <path
         d="m 2952.14,3187.49 h -92.23 v -92.23 h 92.23 v 92.23"
         style="fill:#255735;fill-opacity:1;fill-rule:evenodd;stroke:none"
         id="path338" />
      <path
         d="m 3180.59,3187.49 h -92.27 v -92.23 h 92.27 v 92.23"
         style="fill:#255735;fill-opacity:1;fill-rule:evenodd;stroke:none"
         id="path340" />
      <path
         d="m 2974.09,2981.05 h 92.23 v 92.23 h -92.23 v -92.23"
         style="fill:#255735;fill-opacity:1;fill-rule:evenodd;stroke:none"
         id="path342" />
      <path
         d="m 2859.91,2981.05 h 92.23 v 92.23 h -92.23 v -92.23"
         style="fill:#255735;fill-opacity:1;fill-rule:evenodd;stroke:none"
         id="path344" />
      <path
         d="m 3088.32,2981.05 h 92.27 v 92.23 h -92.27 v -92.23"
         style="fill:#255735;fill-opacity:1;fill-rule:evenodd;stroke:none"
         id="path346" />
      <path
         d="m 3066.32,3530.19 h -92.23 v -92.26 h 92.23 v 92.26"
         style="fill:#255735;fill-opacity:1;fill-rule:evenodd;stroke:none"
         id="path348" />
      <path
         d="m 2952.14,3530.19 h -92.23 v -92.26 h 92.23 v 92.26"
         style="fill:#255735;fill-opacity:1;fill-rule:evenodd;stroke:none"
         id="path350" />
      <path
         d="m 3180.59,3530.19 h -92.27 v -92.26 h 92.27 v 92.26"
         style="fill:#255735;fill-opacity:1;fill-rule:evenodd;stroke:none"
         id="path352" />
      <path
         d="m 3066.32,3415.97 h -92.23 v -92.25 h 92.23 v 92.25"
         style="fill:#255735;fill-opacity:1;fill-rule:evenodd;stroke:none"
         id="path354" />
      <path
         d="m 2952.14,3415.97 h -92.23 v -92.25 h 92.23 v 92.25"
         style="fill:#255735;fill-opacity:1;fill-rule:evenodd;stroke:none"
         id="path356" />
      <path
         d="m 3180.59,3415.97 h -92.27 v -92.25 h 92.27 v 92.25"
         style="fill:#255735;fill-opacity:1;fill-rule:evenodd;stroke:none"
         id="path358" />
      <path
         d="m 2952.14,3640.08 c -33.65,-8.5 -64.79,-23.05 -92.23,-42.61 v -45.29 h 92.23 v 87.9"
         style="fill:#255735;fill-opacity:1;fill-rule:evenodd;stroke:none"
         id="path360" />
      <path
         d="m 3180.59,3597.47 c -27.47,19.56 -58.62,34.11 -92.27,42.61 v -87.9 h 92.27 v 45.29"
         style="fill:#255735;fill-opacity:1;fill-rule:evenodd;stroke:none"
         id="path362" />
      <path
         d="m 3066.32,3644.73 c -15.03,2.55 -30.33,4.14 -46.09,4.14 -15.73,0 -31.11,-1.59 -46.14,-4.14 v -92.55 h 92.23 v 92.55"
         style="fill:#255735;fill-opacity:1;fill-rule:evenodd;stroke:none"
         id="path364" />
      <path
         d="m 3737.89,3301.74 h -92.27 v -92.23 h 92.27 v 92.23"
         style="fill:#255735;fill-opacity:1;fill-rule:evenodd;stroke:none"
         id="path366" />
      <path
         d="m 3623.68,3301.74 h -92.24 v -92.23 h 92.24 v 92.23"
         style="fill:#255735;fill-opacity:1;fill-rule:evenodd;stroke:none"
         id="path368" />
      <path
         d="m 3852.15,3301.74 h -92.27 v -92.23 h 92.27 v 92.23"
         style="fill:#255735;fill-opacity:1;fill-rule:evenodd;stroke:none"
         id="path370" />
      <path
         d="m 3737.89,3187.49 h -92.27 v -92.23 h 92.27 v 92.23"
         style="fill:#255735;fill-opacity:1;fill-rule:evenodd;stroke:none"
         id="path372" />
      <path
         d="m 3623.68,3187.49 h -92.24 v -92.23 h 92.24 v 92.23"
         style="fill:#255735;fill-opacity:1;fill-rule:evenodd;stroke:none"
         id="path374" />
      <path
         d="m 3852.15,3187.49 h -92.27 v -92.23 h 92.27 v 92.23"
         style="fill:#255735;fill-opacity:1;fill-rule:evenodd;stroke:none"
         id="path376" />
      <path
         d="m 3645.62,2981.05 h 92.27 v 92.23 h -92.27 v -92.23"
         style="fill:#255735;fill-opacity:1;fill-rule:evenodd;stroke:none"
         id="path378" />
      <path
         d="m 3531.44,2981.05 h 92.24 v 92.23 h -92.24 v -92.23"
         style="fill:#255735;fill-opacity:1;fill-rule:evenodd;stroke:none"
         id="path380" />
      <path
         d="m 3759.88,2981.05 h 92.27 v 92.23 h -92.27 v -92.23"
         style="fill:#255735;fill-opacity:1;fill-rule:evenodd;stroke:none"
         id="path382" />
      <path
         d="m 3737.89,3530.19 h -92.27 v -92.26 h 92.27 v 92.26"
         style="fill:#255735;fill-opacity:1;fill-rule:evenodd;stroke:none"
         id="path384" />
      <path
         d="m 3623.68,3530.19 h -92.24 v -92.26 h 92.24 v 92.26"
         style="fill:#255735;fill-opacity:1;fill-rule:evenodd;stroke:none"
         id="path386" />
      <path
         d="m 3852.15,3530.19 h -92.27 v -92.26 h 92.27 v 92.26"
         style="fill:#255735;fill-opacity:1;fill-rule:evenodd;stroke:none"
         id="path388" />
      <path
         d="m 3737.89,3415.97 h -92.27 v -92.25 h 92.27 v 92.25"
         style="fill:#255735;fill-opacity:1;fill-rule:evenodd;stroke:none"
         id="path390" />
      <path
         d="m 3623.68,3415.97 h -92.24 v -92.25 h 92.24 v 92.25"
         style="fill:#255735;fill-opacity:1;fill-rule:evenodd;stroke:none"
         id="path392" />
      <path
         d="m 3852.15,3415.97 h -92.27 v -92.25 h 92.27 v 92.25"
         style="fill:#255735;fill-opacity:1;fill-rule:evenodd;stroke:none"
         id="path394" />
      <path
         d="m 3623.68,3640.08 c -33.63,-8.5 -64.77,-23.05 -92.24,-42.61 v -45.29 h 92.24 v 87.9"
         style="fill:#255735;fill-opacity:1;fill-rule:evenodd;stroke:none"
         id="path396" />
      <path
         d="m 3852.15,3597.47 c -27.47,19.56 -58.61,34.11 -92.27,42.61 v -87.9 h 92.27 v 45.29"
         style="fill:#255735;fill-opacity:1;fill-rule:evenodd;stroke:none"
         id="path398" />
      <path
         d="m 3737.89,3644.73 c -15.03,2.55 -30.34,4.14 -46.1,4.14 -15.75,0 -31.11,-1.59 -46.17,-4.14 v -92.55 h 92.27 v 92.55"
         style="fill:#255735;fill-opacity:1;fill-rule:evenodd;stroke:none"
         id="path400" />
      <path
         d="m 5752.55,3301.74 h -92.28 v -92.23 h 92.28 v 92.23"
         style="fill:#255735;fill-opacity:1;fill-rule:evenodd;stroke:none"
         id="path402" />
      <path
         d="m 5638.34,3301.74 h -92.22 v -92.23 h 92.22 v 92.23"
         style="fill:#255735;fill-opacity:1;fill-rule:evenodd;stroke:none"
         id="path404" />
      <path
         d="m 5866.81,3301.74 h -92.27 v -92.23 h 92.27 v 92.23"
         style="fill:#255735;fill-opacity:1;fill-rule:evenodd;stroke:none"
         id="path406" />
      <path
         d="m 5752.55,3187.49 h -92.28 v -92.23 h 92.28 v 92.23"
         style="fill:#255735;fill-opacity:1;fill-rule:evenodd;stroke:none"
         id="path408" />
      <path
         d="m 5638.34,3187.49 h -92.22 v -92.23 h 92.22 v 92.23"
         style="fill:#255735;fill-opacity:1;fill-rule:evenodd;stroke:none"
         id="path410" />
      <path
         d="m 5866.81,3187.49 h -92.27 v -92.23 h 92.27 v 92.23"
         style="fill:#255735;fill-opacity:1;fill-rule:evenodd;stroke:none"
         id="path412" />
      <path
         d="m 5660.27,2981.05 h 92.28 v 92.23 h -92.28 v -92.23"
         style="fill:#255735;fill-opacity:1;fill-rule:evenodd;stroke:none"
         id="path414" />
      <path
         d="m 5546.12,2981.05 h 92.22 v 92.23 h -92.22 v -92.23"
         style="fill:#255735;fill-opacity:1;fill-rule:evenodd;stroke:none"
         id="path416" />
      <path
         d="m 5774.54,2981.05 h 92.27 v 92.23 h -92.27 v -92.23"
         style="fill:#255735;fill-opacity:1;fill-rule:evenodd;stroke:none"
         id="path418" />
      <path
         d="m 5752.55,3530.19 h -92.28 v -92.26 h 92.28 v 92.26"
         style="fill:#255735;fill-opacity:1;fill-rule:evenodd;stroke:none"
         id="path420" />
      <path
         d="m 5638.34,3530.19 h -92.22 v -92.26 h 92.22 v 92.26"
         style="fill:#255735;fill-opacity:1;fill-rule:evenodd;stroke:none"
         id="path422" />
      <path
         d="m 5866.81,3530.19 h -92.27 v -92.26 h 92.27 v 92.26"
         style="fill:#255735;fill-opacity:1;fill-rule:evenodd;stroke:none"
         id="path424" />
      <path
         d="m 5752.55,3415.97 h -92.28 v -92.25 h 92.28 v 92.25"
         style="fill:#255735;fill-opacity:1;fill-rule:evenodd;stroke:none"
         id="path426" />
      <path
         d="m 5638.34,3415.97 h -92.22 v -92.25 h 92.22 v 92.25"
         style="fill:#255735;fill-opacity:1;fill-rule:evenodd;stroke:none"
         id="path428" />
      <path
         d="m 5866.81,3415.97 h -92.27 v -92.25 h 92.27 v 92.25"
         style="fill:#255735;fill-opacity:1;fill-rule:evenodd;stroke:none"
         id="path430" />
      <path
         d="m 5638.34,3640.08 c -33.65,-8.5 -64.77,-23.05 -92.22,-42.61 v -45.29 h 92.22 v 87.9"
         style="fill:#255735;fill-opacity:1;fill-rule:evenodd;stroke:none"
         id="path432" />
      <path
         d="m 5866.81,3597.47 c -27.47,19.56 -58.62,34.11 -92.27,42.61 v -87.9 h 92.27 v 45.29"
         style="fill:#255735;fill-opacity:1;fill-rule:evenodd;stroke:none"
         id="path434" />
      <path
         d="m 5752.55,3644.73 c -15.04,2.55 -30.33,4.14 -46.09,4.14 -15.77,0 -31.13,-1.59 -46.19,-4.14 v -92.55 h 92.28 v 92.55"
         style="fill:#255735;fill-opacity:1;fill-rule:evenodd;stroke:none"
         id="path436" />
      <path
         d="m 6424.08,3301.74 h -92.24 v -92.23 h 92.24 v 92.23"
         style="fill:#255735;fill-opacity:1;fill-rule:evenodd;stroke:none"
         id="path438" />
      <path
         d="m 6309.9,3301.74 h -92.24 v -92.23 h 92.24 v 92.23"
         style="fill:#255735;fill-opacity:1;fill-rule:evenodd;stroke:none"
         id="path440" />
      <path
         d="m 6538.34,3301.74 h -92.24 v -92.23 h 92.24 v 92.23"
         style="fill:#255735;fill-opacity:1;fill-rule:evenodd;stroke:none"
         id="path442" />
      <path
         d="m 6424.08,3187.49 h -92.24 v -92.23 h 92.24 v 92.23"
         style="fill:#255735;fill-opacity:1;fill-rule:evenodd;stroke:none"
         id="path444" />
      <path
         d="m 6309.9,3187.49 h -92.24 v -92.23 h 92.24 v 92.23"
         style="fill:#255735;fill-opacity:1;fill-rule:evenodd;stroke:none"
         id="path446" />
      <path
         d="m 6538.34,3187.49 h -92.24 v -92.23 h 92.24 v 92.23"
         style="fill:#255735;fill-opacity:1;fill-rule:evenodd;stroke:none"
         id="path448" />
      <path
         d="m 6331.84,2981.05 h 92.24 v 92.23 h -92.24 v -92.23"
         style="fill:#255735;fill-opacity:1;fill-rule:evenodd;stroke:none"
         id="path450" />
      <path
         d="m 6217.66,2981.05 h 92.24 v 92.23 h -92.24 v -92.23"
         style="fill:#255735;fill-opacity:1;fill-rule:evenodd;stroke:none"
         id="path452" />
      <path
         d="m 6446.1,2981.05 h 92.24 v 92.23 h -92.24 v -92.23"
         style="fill:#255735;fill-opacity:1;fill-rule:evenodd;stroke:none"
         id="path454" />
      <path
         d="m 6424.08,3530.19 h -92.24 v -92.26 h 92.24 v 92.26"
         style="fill:#255735;fill-opacity:1;fill-rule:evenodd;stroke:none"
         id="path456" />
      <path
         d="m 6309.9,3530.19 h -92.24 v -92.26 h 92.24 v 92.26"
         style="fill:#255735;fill-opacity:1;fill-rule:evenodd;stroke:none"
         id="path458" />
      <path
         d="m 6538.34,3530.19 h -92.24 v -92.26 h 92.24 v 92.26"
         style="fill:#255735;fill-opacity:1;fill-rule:evenodd;stroke:none"
         id="path460" />
      <path
         d="m 6424.08,3415.97 h -92.24 v -92.25 h 92.24 v 92.25"
         style="fill:#255735;fill-opacity:1;fill-rule:evenodd;stroke:none"
         id="path462" />
      <path
         d="m 6309.9,3415.97 h -92.24 v -92.25 h 92.24 v 92.25"
         style="fill:#255735;fill-opacity:1;fill-rule:evenodd;stroke:none"
         id="path464" />
      <path
         d="m 6538.34,3415.97 h -92.24 v -92.25 h 92.24 v 92.25"
         style="fill:#255735;fill-opacity:1;fill-rule:evenodd;stroke:none"
         id="path466" />
      <path
         d="m 6309.9,3640.08 c -33.65,-8.5 -64.79,-23.05 -92.24,-42.61 v -45.29 h 92.24 v 87.9"
         style="fill:#255735;fill-opacity:1;fill-rule:evenodd;stroke:none"
         id="path468" />
      <path
         d="m 6538.34,3597.47 c -27.47,19.56 -58.58,34.11 -92.24,42.61 v -87.9 h 92.24 v 45.29"
         style="fill:#255735;fill-opacity:1;fill-rule:evenodd;stroke:none"
         id="path470" />
      <path
         d="m 6424.08,3644.73 c -15.01,2.55 -30.33,4.14 -46.09,4.14 -15.73,0 -31.1,-1.59 -46.15,-4.14 v -92.55 h 92.24 v 92.55"
         style="fill:#255735;fill-opacity:1;fill-rule:evenodd;stroke:none"
         id="path472" />
      <path
         d="m 7095.64,3301.74 h -92.27 v -92.23 h 92.27 v 92.23"
         style="fill:#255735;fill-opacity:1;fill-rule:evenodd;stroke:none"
         id="path474" />
      <path
         d="m 6981.46,3301.74 h -92.24 v -92.23 h 92.24 v 92.23"
         style="fill:#255735;fill-opacity:1;fill-rule:evenodd;stroke:none"
         id="path476" />
      <path
         d="m 7209.87,3301.74 h -92.23 v -92.23 h 92.23 v 92.23"
         style="fill:#255735;fill-opacity:1;fill-rule:evenodd;stroke:none"
         id="path478" />
      <path
         d="m 7095.64,3187.49 h -92.27 v -92.23 h 92.27 v 92.23"
         style="fill:#255735;fill-opacity:1;fill-rule:evenodd;stroke:none"
         id="path480" />
      <path
         d="m 6981.46,3187.49 h -92.24 v -92.23 h 92.24 v 92.23"
         style="fill:#255735;fill-opacity:1;fill-rule:evenodd;stroke:none"
         id="path482" />
      <path
         d="m 7209.87,3187.49 h -92.23 v -92.23 h 92.23 v 92.23"
         style="fill:#255735;fill-opacity:1;fill-rule:evenodd;stroke:none"
         id="path484" />
      <path
         d="m 7003.37,2981.05 h 92.27 v 92.23 h -92.27 v -92.23"
         style="fill:#255735;fill-opacity:1;fill-rule:evenodd;stroke:none"
         id="path486" />
      <path
         d="m 6889.22,2981.05 h 92.24 v 92.23 h -92.24 v -92.23"
         style="fill:#255735;fill-opacity:1;fill-rule:evenodd;stroke:none"
         id="path488" />
      <path
         d="m 7117.64,2981.05 h 92.23 v 92.23 h -92.23 v -92.23"
         style="fill:#255735;fill-opacity:1;fill-rule:evenodd;stroke:none"
         id="path490" />
      <path
         d="m 7095.64,3530.19 h -92.27 v -92.26 h 92.27 v 92.26"
         style="fill:#255735;fill-opacity:1;fill-rule:evenodd;stroke:none"
         id="path492" />
      <path
         d="m 6981.46,3530.19 h -92.24 v -92.26 h 92.24 v 92.26"
         style="fill:#255735;fill-opacity:1;fill-rule:evenodd;stroke:none"
         id="path494" />
      <path
         d="m 7209.87,3530.19 h -92.23 v -92.26 h 92.23 v 92.26"
         style="fill:#255735;fill-opacity:1;fill-rule:evenodd;stroke:none"
         id="path496" />
      <path
         d="m 7095.64,3415.97 h -92.27 v -92.25 h 92.27 v 92.25"
         style="fill:#255735;fill-opacity:1;fill-rule:evenodd;stroke:none"
         id="path498" />
      <path
         d="m 6981.46,3415.97 h -92.24 v -92.25 h 92.24 v 92.25"
         style="fill:#255735;fill-opacity:1;fill-rule:evenodd;stroke:none"
         id="path500" />
      <path
         d="m 7209.87,3415.97 h -92.23 v -92.25 h 92.23 v 92.25"
         style="fill:#255735;fill-opacity:1;fill-rule:evenodd;stroke:none"
         id="path502" />
      <path
         d="m 6981.46,3640.08 c -33.65,-8.5 -64.79,-23.05 -92.24,-42.61 v -45.29 h 92.24 v 87.9"
         style="fill:#255735;fill-opacity:1;fill-rule:evenodd;stroke:none"
         id="path504" />
      <path
         d="m 7209.87,3597.47 c -27.44,19.56 -58.55,34.11 -92.23,42.61 v -87.9 h 92.23 v 45.29"
         style="fill:#255735;fill-opacity:1;fill-rule:evenodd;stroke:none"
         id="path506" />
      <path
         d="m 7095.64,3644.73 c -15.01,2.55 -30.33,4.14 -46.09,4.14 -15.76,0 -31.09,-1.59 -46.18,-4.14 v -92.55 h 92.27 v 92.55"
         style="fill:#255735;fill-opacity:1;fill-rule:evenodd;stroke:none"
         id="path508" />
      <path
         d="m 7767.21,3301.74 h -92.28 v -92.23 h 92.28 v 92.23"
         style="fill:#255735;fill-opacity:1;fill-rule:evenodd;stroke:none"
         id="path510" />
      <path
         d="m 7653,3301.74 h -92.22 v -92.23 H 7653 v 92.23"
         style="fill:#255735;fill-opacity:1;fill-rule:evenodd;stroke:none"
         id="path512" />
      <path
         d="m 7881.44,3301.74 h -92.27 v -92.23 h 92.27 v 92.23"
         style="fill:#255735;fill-opacity:1;fill-rule:evenodd;stroke:none"
         id="path514" />
      <path
         d="m 7767.21,3187.49 h -92.28 v -92.23 h 92.28 v 92.23"
         style="fill:#255735;fill-opacity:1;fill-rule:evenodd;stroke:none"
         id="path516" />
      <path
         d="m 7653,3187.49 h -92.22 v -92.23 H 7653 v 92.23"
         style="fill:#255735;fill-opacity:1;fill-rule:evenodd;stroke:none"
         id="path518" />
      <path
         d="m 7881.44,3187.49 h -92.27 v -92.23 h 92.27 v 92.23"
         style="fill:#255735;fill-opacity:1;fill-rule:evenodd;stroke:none"
         id="path520" />
      <path
         d="m 7674.93,2981.05 h 92.28 v 92.23 h -92.28 v -92.23"
         style="fill:#255735;fill-opacity:1;fill-rule:evenodd;stroke:none"
         id="path522" />
      <path
         d="M 7560.78,2981.05 H 7653 v 92.23 h -92.22 v -92.23"
         style="fill:#255735;fill-opacity:1;fill-rule:evenodd;stroke:none"
         id="path524" />
      <path
         d="m 7789.17,2981.05 h 92.27 v 92.23 h -92.27 v -92.23"
         style="fill:#255735;fill-opacity:1;fill-rule:evenodd;stroke:none"
         id="path526" />
      <path
         d="m 7767.21,3530.19 h -92.28 v -92.26 h 92.28 v 92.26"
         style="fill:#255735;fill-opacity:1;fill-rule:evenodd;stroke:none"
         id="path528" />
      <path
         d="m 7653,3530.19 h -92.22 v -92.26 H 7653 v 92.26"
         style="fill:#255735;fill-opacity:1;fill-rule:evenodd;stroke:none"
         id="path530" />
      <path
         d="m 7881.44,3530.19 h -92.27 v -92.26 h 92.27 v 92.26"
         style="fill:#255735;fill-opacity:1;fill-rule:evenodd;stroke:none"
         id="path532" />
      <path
         d="m 7767.21,3415.97 h -92.28 v -92.25 h 92.28 v 92.25"
         style="fill:#255735;fill-opacity:1;fill-rule:evenodd;stroke:none"
         id="path534" />
      <path
         d="m 7653,3415.97 h -92.22 v -92.25 H 7653 v 92.25"
         style="fill:#255735;fill-opacity:1;fill-rule:evenodd;stroke:none"
         id="path536" />
      <path
         d="m 7881.44,3415.97 h -92.27 v -92.25 h 92.27 v 92.25"
         style="fill:#255735;fill-opacity:1;fill-rule:evenodd;stroke:none"
         id="path538" />
      <path
         d="m 7653,3640.08 c -33.63,-8.5 -64.78,-23.05 -92.22,-42.61 v -45.29 H 7653 v 87.9"
         style="fill:#255735;fill-opacity:1;fill-rule:evenodd;stroke:none"
         id="path540" />
      <path
         d="m 7881.44,3597.47 c -27.45,19.56 -58.59,34.11 -92.27,42.61 v -87.9 h 92.27 v 45.29"
         style="fill:#255735;fill-opacity:1;fill-rule:evenodd;stroke:none"
         id="path542" />
      <path
         d="m 7767.21,3644.73 c -15.04,2.55 -30.34,4.14 -46.1,4.14 -15.76,0 -31.12,-1.59 -46.18,-4.14 v -92.55 h 92.28 v 92.55"
         style="fill:#255735;fill-opacity:1;fill-rule:evenodd;stroke:none"
         id="path544" />
      <path
         d="m 8438.74,3301.74 h -92.25 v -92.23 h 92.25 v 92.23"
         style="fill:#255735;fill-opacity:1;fill-rule:evenodd;stroke:none"
         id="path546" />
      <path
         d="m 8324.56,3301.74 h -92.22 v -92.23 h 92.22 v 92.23"
         style="fill:#255735;fill-opacity:1;fill-rule:evenodd;stroke:none"
         id="path548" />
      <path
         d="m 8553,3301.74 h -92.27 v -92.23 H 8553 v 92.23"
         style="fill:#255735;fill-opacity:1;fill-rule:evenodd;stroke:none"
         id="path550" />
      <path
         d="m 8438.74,3187.49 h -92.25 v -92.23 h 92.25 v 92.23"
         style="fill:#255735;fill-opacity:1;fill-rule:evenodd;stroke:none"
         id="path552" />
      <path
         d="m 8324.56,3187.49 h -92.22 v -92.23 h 92.22 v 92.23"
         style="fill:#255735;fill-opacity:1;fill-rule:evenodd;stroke:none"
         id="path554" />
      <path
         d="m 8553,3187.49 h -92.27 v -92.23 H 8553 v 92.23"
         style="fill:#255735;fill-opacity:1;fill-rule:evenodd;stroke:none"
         id="path556" />
      <path
         d="m 8346.49,2981.05 h 92.25 v 92.23 h -92.25 v -92.23"
         style="fill:#255735;fill-opacity:1;fill-rule:evenodd;stroke:none"
         id="path558" />
      <path
         d="m 8232.34,2981.05 h 92.22 v 92.23 h -92.22 v -92.23"
         style="fill:#255735;fill-opacity:1;fill-rule:evenodd;stroke:none"
         id="path560" />
      <path
         d="M 8460.73,2981.05 H 8553 v 92.23 h -92.27 v -92.23"
         style="fill:#255735;fill-opacity:1;fill-rule:evenodd;stroke:none"
         id="path562" />
      <path
         d="m 8438.74,3530.19 h -92.25 v -92.26 h 92.25 v 92.26"
         style="fill:#255735;fill-opacity:1;fill-rule:evenodd;stroke:none"
         id="path564" />
      <path
         d="m 8324.56,3530.19 h -92.22 v -92.26 h 92.22 v 92.26"
         style="fill:#255735;fill-opacity:1;fill-rule:evenodd;stroke:none"
         id="path566" />
      <path
         d="m 8553,3530.19 h -92.27 v -92.26 H 8553 v 92.26"
         style="fill:#255735;fill-opacity:1;fill-rule:evenodd;stroke:none"
         id="path568" />
      <path
         d="m 8438.74,3415.97 h -92.25 v -92.25 h 92.25 v 92.25"
         style="fill:#255735;fill-opacity:1;fill-rule:evenodd;stroke:none"
         id="path570" />
      <path
         d="m 8324.56,3415.97 h -92.22 v -92.25 h 92.22 v 92.25"
         style="fill:#255735;fill-opacity:1;fill-rule:evenodd;stroke:none"
         id="path572" />
      <path
         d="m 8553,3415.97 h -92.27 v -92.25 H 8553 v 92.25"
         style="fill:#255735;fill-opacity:1;fill-rule:evenodd;stroke:none"
         id="path574" />
      <path
         d="m 8324.56,3640.08 c -33.65,-8.5 -64.79,-23.05 -92.22,-42.61 v -45.29 h 92.22 v 87.9"
         style="fill:#255735;fill-opacity:1;fill-rule:evenodd;stroke:none"
         id="path576" />
      <path
         d="m 8553,3597.47 c -27.44,19.56 -58.62,34.11 -92.27,42.61 v -87.9 H 8553 v 45.29"
         style="fill:#255735;fill-opacity:1;fill-rule:evenodd;stroke:none"
         id="path578" />
      <path
         d="m 8438.74,3644.73 c -15.01,2.55 -30.33,4.14 -46.09,4.14 -15.74,0 -31.1,-1.59 -46.16,-4.14 v -92.55 h 92.25 v 92.55"
         style="fill:#255735;fill-opacity:1;fill-rule:evenodd;stroke:none"
         id="path580" />
      <path
         d="M 1913.21,5679.14 V 5083 c 0,-235.16 167.48,-391.9 418.67,-391.9 244.16,0 406.91,157.8 406.91,394.52 v 596.97 c 2.65,41.61 37.29,71.32 79.75,71.32 h 24.58 V 5769 l -279.23,-0.02 v -15.1 h 24.64 c 42.88,0 77.83,-30.35 79.72,-72.66 v -595.53 c -0.35,-208.23 -134.8,-347.06 -336.47,-347.06 -192.31,0 -320.52,146.61 -320.52,366.54 v 576.24 c 1.81,42.24 36.73,72.5 79.56,72.5 h 24.63 V 5769 H 1808.8 v -15.09 h 24.59 c 43.64,0 79.02,-31.34 79.82,-74.77"
         style="fill:#6f7479;fill-opacity:1;fill-rule:nonzero;stroke:none"
         id="path582" />
      <path
         d="m 3196.72,4727.28 h -27.84 c -50.53,0 -91.6,40.2 -93.16,90.31 v 751.66 l 823.3,-878.18 h 13.69 c 0,0 -13.76,95.34 -13.76,192.6 v 779.99 c 1.61,50.12 42.63,90.25 93.15,90.25 h 27.88 l 0.22,15.09 h -311.08 l 0.22,-15.09 h 27.85 c 50.92,0 92.23,-40.81 93.21,-91.5 v -748.68 l -822.12,877.85 h -14.9 c 0,0 13.9,-85.51 13.9,-188.59 v -784.28 c -1,-50.66 -42.29,-91.43 -93.19,-91.43 h -27.87 l -0.22,-15.1 h 310.97 l -0.25,15.1"
         style="fill:#6f7479;fill-opacity:1;fill-rule:nonzero;stroke:none"
         id="path584" />
      <path
         d="m 4167.27,4727.34 h -19.08 l -0.27,-15.1 h 330.32 l -0.27,15.1 h -19.08 c -52.84,0 -95.72,42.34 -96.69,94.92 v 837.79 c 1.48,52.12 44.15,93.95 96.69,93.95 h 19.08 l 0.24,15.1 h -330.26 l 0.27,-15.1 h 19.08 c 52.62,0 95.37,-41.98 96.69,-94.28 v -837.46 c -1,-52.58 -43.88,-94.92 -96.72,-94.92"
         style="fill:#6f7479;fill-opacity:1;fill-rule:nonzero;stroke:none"
         id="path586" />
      <path
         d="m 4973.1,4727.31 h -19.12 c -52.84,0 -95.72,42.34 -96.71,94.92 v 388.47 h 256.69 c 39.72,-1.56 71.43,-34.21 71.43,-74.32 v -22.26 l 14.77,-0.16 v 238.9 l -14.77,-0.19 v -22.22 c 0,-40.65 -32.57,-73.62 -73,-74.4 h -255.15 v 466.74 h 319.36 c 40.48,-0.8 73.02,-33.77 73.02,-74.41 v -22.24 l 15.09,-0.19 v 100.2 26.07 l -0.03,44.23 c -27.98,-11.81 -114.89,-26.84 -179.94,-27.47 h -441.16 l 0.25,-15.01 h 19.1 c 49.96,0 96.16,-37.86 96.16,-86.47 v -845.27 c -1,-52.58 -43.88,-94.92 -96.7,-94.92 h -19.1 l -0.27,-15.1 h 330.29 l -0.21,15.1"
         style="fill:#6f7479;fill-opacity:1;fill-rule:nonzero;stroke:none"
         id="path588" />
      <path
         d="m 6158.37,4956.1 h -15.09 c -46.6,-114.94 -108.03,-197.68 -268,-197.68 h -216.51 v 452.32 h 256.72 c 39.7,-1.57 71.43,-34.22 71.43,-74.33 v -22.25 l 14.74,-0.17 v 238.91 l -14.74,-0.2 v -22.23 c 0,-40.64 -32.59,-73.62 -72.99,-74.38 h -255.16 v 466.73 h 307.78 c 47.14,-2.88 84.52,-41.99 84.52,-89.86 v -26.9 l 15.22,-0.22 v 121.21 25.2 44.2 c -27.96,-11.81 -114.85,-26.84 -179.94,-27.45 H 5445.2 l 0.24,-15.03 h 19.1 c 49.95,0 91.03,-37.86 96.15,-86.44 v -845.3 c -0.96,-52.58 -43.84,-94.92 -96.69,-94.92 h -19.1 l -0.24,-15.1 h 625.84 l 87.87,243.89"
         style="fill:#6f7479;fill-opacity:1;fill-rule:nonzero;stroke:none"
         id="path590" />
      <path
         d="m 6558.23,4691.07 c 173.61,0 282.66,115.32 282.66,282.3 0,60.99 -15.44,128.31 -75.83,184.05 l -296.67,274.63 c -47.55,44.07 -60.74,99.81 -60.74,139.18 0,92.01 74.45,173.59 185.69,173.59 94.05,0 170.18,-58.87 169.79,-155.43 h 14.58 v 167.3 17.94 h -59.83 c -40.1,8.73 -89.83,15.48 -129.45,15.48 -172.12,0 -265.3,-127.89 -265.3,-255.11 0,-58.46 20.75,-131.35 81.79,-187.09 l 289.19,-268.55 c 37.7,-35.02 59.21,-81.69 59.21,-140.69 0,-120.63 -92.05,-196.17 -202.27,-202.32 -134.36,-7.45 -232.87,92.12 -217.67,247.67 h -13.28 c -22.99,-67.7 -28.71,-163.84 -17.46,-210.47 59.31,-61.34 181.62,-82.48 255.59,-82.48"
         style="fill:#6f7479;fill-opacity:1;fill-rule:nonzero;stroke:none"
         id="path592" />
      <path
         d="m 7299.79,4727.28 h -19.11 c -52.81,0 -95.66,42.34 -96.66,94.92 v 901.45 h 174.01 c 128.43,0 199.75,-92.42 203.53,-231.1 0.92,-33.35 -2.94,-69.77 -9.66,-91.04 -68.11,-216.22 -316.44,-162.65 -316.44,-162.65 l 0.17,-14.27 c 189.41,-99.82 439.15,22.7 439.15,252.78 0,180.79 -118.32,291.57 -311.32,291.57 l -393.33,0.04 0.21,-15.01 h 19.11 c 50.14,0 91.32,-38.15 96.23,-86.99 V 4822.2 c -1.02,-52.58 -43.9,-94.92 -96.74,-94.92 h -19.11 l -0.24,-15.1 h 330.45 l -0.25,15.1"
         style="fill:#6f7479;fill-opacity:1;fill-rule:nonzero;stroke:none"
         id="path594" />
      <path
         d="m 650.215,1346.5 h 12.523 c 21.856,0 39.684,-15.5 40.641,-37.06 V 1006.09 C 703.18,899.969 634.672,829.242 531.934,829.242 c -97.989,0 -163.313,74.719 -163.313,186.738 v 293.55 c 0.957,21.57 18.734,36.97 40.59,36.97 h 12.523 v 7.67 H 265.531 v -7.67 h 12.528 c 22.218,0 40.238,-15.95 40.636,-38.12 v -303.71 c 0,-119.74 85.325,-199.611 213.293,-199.611 124.395,0 207.336,80.371 207.336,200.971 v 304.12 c 1.313,21.2 18.989,36.35 40.586,36.35 h 12.528 v 7.67 H 650.215 v -7.67"
         style="fill:#6f7479;fill-opacity:1;fill-rule:nonzero;stroke:none"
         id="path596" />
      <path
         d="M 1246.17,1269.61 H 1259 c 22.77,0 41.35,-17.01 42.75,-38.47 V 912.242 l -399.113,376.148 -8.274,0.41 c 0,0 7.367,-43.62 7.367,-96.13 V 863.672 c -0.46,-22.25 -19.39,-40.18 -42.812,-40.18 h -12.82 L 846,815.762 h 145.391 l -0.106,7.73 h -12.777 c -23.426,0 -42.395,17.93 -42.801,40.18 V 1184.55 L 1335.69,805.012 h 7.31 c 0,0 -7.31,48.558 -7.31,98.148 v 327.93 c 1.36,21.45 19.93,38.46 42.76,38.46 h 12.76 l 0.11,7.73 h -145.24 l 0.09,-7.67"
         style="fill:#6f7479;fill-opacity:1;fill-rule:nonzero;stroke:none"
         id="path598" />
      <path
         d="m 1624.15,823.492 c -28.27,0 -51.29,18.27 -52.21,41.028 v 364.75 c 1.37,22.47 24.18,40.34 52.15,40.34 h 10.35 v 7.67 h -174.21 l 0.15,-7.67 h 10.25 c 28.62,0 51.74,-18.58 52.3,-41.7 V 865.141 c -0.56,-23.082 -23.68,-41.649 -52.26,-41.649 h -10.24 l -0.16,-7.683 h 174.28 l -0.16,7.683 h -10.24"
         style="fill:#6f7479;fill-opacity:1;fill-rule:nonzero;stroke:none"
         id="path600" />
      <path
         d="m 2183.95,1269.55 h 6.12 v 7.73 h -146.51 v -7.62 h 6.1 c 17.92,0 38.13,-17.52 26.42,-48.26 L 1935.02,887.602 1797.36,1222.86 c -9.85,29.84 9.23,46.75 26.91,46.75 h 6.15 v 7.63 h -157.96 v -7.69 h 5.81 c 20.59,0 43.77,-13.22 59.48,-44.97 l 189.79,-419.521 h 7.29 c 1.6,20.101 29.58,79.211 29.58,79.211 l 159.06,340.46 c 15.76,31.66 39.94,44.82 60.48,44.82"
         style="fill:#6f7479;fill-opacity:1;fill-rule:nonzero;stroke:none"
         id="path602" />
      <path
         d="m 2239.13,823.441 h -10.6 l -0.11,-7.679 h 312.45 l 42.37,110.359 h -8.34 c -21.86,-49.769 -48.17,-85.781 -122.06,-86.781 h -120.25 v 195.67 h 133.15 c 20.1,-1.21 29.39,-15.34 29.39,-32.61 v -9.74 l 8.39,-0.109 V 1100.6 l -8.39,-0.12 v -9.74 c 0,-17.82 -9.85,-32.2 -31.15,-32.66 h -131.39 v 195.63 h 159.46 c 23.42,-0.46 38.57,-17.93 38.57,-39.53 v -11.82 l 8.39,-0.09 v 87.03 c -13.44,-5.2 -55.03,-11.82 -85.93,-12.06 h -224.69 l 0.14,-7.69 h 10.55 c 24.99,0 44.42,-17.36 44.42,-40.28 V 864.281 c -0.89,-22.672 -19.57,-40.84 -44.37,-40.84"
         style="fill:#6f7479;fill-opacity:1;fill-rule:nonzero;stroke:none"
         id="path604" />
      <path
         d="m 2996.54,881.941 c -31.82,35.649 -67.31,83.86 -67.31,83.86 -16.46,23.32 -42.45,52.659 -59.26,60.279 69.06,6.91 119.61,61.38 119.61,126.61 0,77.69 -59.37,124.55 -156.36,124.55 l -192.74,0.04 0.16,-7.73 h 10.34 c 24.47,0 42.9,-17.2 43.71,-40.03 V 864.121 c -0.99,-22.609 -19.37,-40.629 -43.71,-40.629 h -10.34 l -0.16,-7.73 h 157.3 l -0.16,7.73 h -10.39 c -24.74,0 -43.21,18.567 -43.72,41.699 V 1253.3 c 7.32,-0.4 45.23,1.53 88.44,-0.65 61.9,-3.13 100.68,-37 102.28,-94.61 0.51,-16.86 -1.65,-33.07 -5.35,-43.87 -22.04,-64.62 -70.51,-65.02 -113.07,-66.13 -25.15,-0.61 -44.07,-0.3 -44.07,-0.3 v -7.12 c 30.39,0 57.08,-25.7 77.88,-51.8 6.07,-7.519 66.69,-94.898 75.38,-105.359 24.12,-28.981 57.7,-67.652 142.81,-67.652 h 24.24 v 7.683 c -42.65,0.36 -64.21,23.379 -95.51,58.449"
         style="fill:#6f7479;fill-opacity:1;fill-rule:nonzero;stroke:none"
         id="path606" />
      <path
         d="m 3393.78,928.852 c -0.24,29.929 -11.09,62.738 -34.84,82.638 l -155.63,119.84 c -24.13,19.39 -30.09,40.79 -30.22,60.59 -0.3,40.84 41.04,73.35 92.42,73.35 60.32,0 88.85,-25.4 88.85,-68 h 8.84 l -1.15,83.65 h -25.72 c -17.22,3.98 -40.89,7.12 -76.08,7.12 -71.22,0 -128.08,-49.83 -127.16,-112.28 0.41,-26.71 8.13,-58.67 36.76,-83.14 l 153.82,-118.69 c 19.84,-17.371 28.01,-36.961 28.01,-60.879 0,-49.981 -38.86,-83.149 -102.47,-84.91 -67.84,-1.981 -114.5,39.308 -107.67,108.629 h -8.91 c -10.5,-29.731 -12.46,-75.008 -7.61,-95.508 28.01,-25.102 87.09,-36.203 132.67,-36.203 75.88,0 136.71,55.183 136.09,123.793"
         style="fill:#6f7479;fill-opacity:1;fill-rule:nonzero;stroke:none"
         id="path608" />
      <path
         d="m 3488.1,823.492 h -10.25 l -0.17,-7.683 h 174.28 l -0.16,7.683 h -10.23 c -28.28,0 -51.3,18.27 -52.22,41.028 v 364.75 c 1.38,22.47 24.19,40.34 52.17,40.34 h 10.34 v 7.67 h -174.23 l 0.16,-7.67 h 10.26 c 28.6,0 51.73,-18.58 52.3,-41.7 V 865.141 c -0.57,-23.082 -23.7,-41.649 -52.25,-41.649"
         style="fill:#6f7479;fill-opacity:1;fill-rule:nonzero;stroke:none"
         id="path610" />
      <path
         d="m 3839.55,1254.05 h 153.36 c 118.1,0 191.28,-78.95 191.28,-207.83 0,-128.38 -73.18,-207.091 -191.28,-207.091 h -153.36 z m 400.24,-207.83 c 0,143.18 -95.57,230.96 -247.26,230.96 l -256.5,0.06 0.08,-7.63 h 9.44 c 24.13,0 43.18,-17.22 43.99,-41.5 V 865.242 c -0.73,-22.922 -18.94,-41.75 -43.18,-41.75 h -10.25 l -0.08,-7.73 h 256.5 c 151.69,0 247.26,87.59 247.26,230.458"
         style="fill:#6f7479;fill-opacity:1;fill-rule:nonzero;stroke:none"
         id="path612" />
      <path
         d="m 4428.75,994.98 88.94,210.52 86.39,-210.52 z m 286.35,-126.66 -189.93,419.72 h -7.26 c -1.62,-20.15 -29.85,-79.22 -29.85,-79.22 l -159,-340.91 c -15.76,-31.351 -39.84,-44.418 -60.29,-44.418 h -6.1 v -7.683 h 146.53 v 7.632 h -6.15 c -17.92,0 -38.16,17.52 -26.39,48.258 L 4419,971.961 h 194.57 l 42,-102.391 c 10.04,-29.418 -9.64,-46.129 -27.15,-46.129 h -6.18 v -7.632 h 158.03 v 7.683 h -5.83 c -20.53,0 -43.72,13.227 -59.34,44.828"
         style="fill:#6f7479;fill-opacity:1;fill-rule:nonzero;stroke:none"
         id="path614" />
      <path
         d="m 4922.11,1254.05 h 153.34 c 118.07,0 191.28,-78.95 191.28,-207.83 0,-128.38 -73.21,-207.091 -191.28,-207.091 h -153.34 z m -93.23,-430.558 h -10.26 l -0.08,-7.73 h 256.51 c 151.69,0 247.24,87.59 247.24,230.458 0,143.18 -95.55,230.96 -247.24,230.96 l -256.51,0.06 0.08,-7.63 h 9.45 c 24.12,0 43.17,-17.22 43.95,-41.5 V 865.242 c -0.69,-22.922 -18.91,-41.75 -43.14,-41.75"
         style="fill:#6f7479;fill-opacity:1;fill-rule:nonzero;stroke:none"
         id="path616" />
      <path
         d="m 5402.01,1269.55 c 24.99,0 44.43,-17.36 44.43,-40.28 V 864.281 c -0.89,-22.672 -19.59,-40.84 -44.37,-40.84 h -10.61 l -0.1,-7.679 h 312.45 l 42.34,110.359 h -8.31 c -21.86,-49.769 -48.17,-85.781 -122.09,-86.781 h -120.22 v 195.67 h 133.14 c 20.11,-1.21 29.4,-15.34 29.4,-32.61 v -9.74 l 8.39,-0.109 V 1100.6 l -8.39,-0.12 v -9.74 c 0,-17.82 -9.86,-32.2 -31.15,-32.66 h -131.39 v 195.63 h 159.46 c 23.42,-0.46 38.56,-17.93 38.56,-39.53 v -11.82 l 8.39,-0.09 v 87.03 c -13.43,-5.2 -54.97,-11.82 -85.92,-12.06 H 5391.3 l 0.16,-7.69 h 10.55"
         style="fill:#6f7479;fill-opacity:1;fill-rule:nonzero;stroke:none"
         id="path618" />
      <path
         d="m 6007.46,1354.17 0.11,-7.63 h 9.74 c 25.45,0 48.95,-19.33 48.95,-44.07 V 871.859 c -0.48,-26.82 -22.34,-48.367 -49.25,-48.367 h -9.72 l -0.12,-7.683 h 168.26 l -0.12,7.683 h -9.73 c -26.91,0 -48.77,21.547 -49.28,48.367 v 197.891 h 130.75 c 20.24,-0.75 36.41,-17.42 36.41,-37.86 v -11.31 l 7.53,-0.11 v 121.72 l -7.53,-0.11 v -11.35 c 0,-20.7 -16.55,-37.47 -37.22,-37.86 H 6116.3 v 237.77 H 6279 c 20.62,-0.4 37.21,-17.21 37.21,-37.91 v -11.3 l 7.7,-0.11 v 51.04 13.28 22.52 c -14.31,-6.01 -58.57,-13.7 -91.76,-13.99 h -224.69"
         style="fill:#6f7479;fill-opacity:1;fill-rule:nonzero;stroke:none"
         id="path620" />
      <path
         d="m 6612.96,839.34 h -120.25 v 195.67 h 133.18 c 20.08,-1.21 29.38,-15.34 29.38,-32.61 v -9.74 l 8.37,-0.109 V 1100.6 l -8.37,-0.12 v -9.74 c 0,-17.82 -9.85,-32.2 -31.17,-32.66 h -131.39 v 195.63 h 159.46 c 23.43,-0.46 38.59,-17.93 38.59,-39.53 v -11.82 l 8.37,-0.09 v 87.03 c -13.42,-5.2 -55.03,-11.82 -85.93,-12.06 h -224.68 l 0.15,-7.69 h 10.53 c 24.99,0 44.44,-17.36 44.44,-40.28 V 864.281 c -0.92,-22.672 -19.59,-40.84 -44.39,-40.84 h -10.58 l -0.11,-7.679 h 312.46 l 42.34,110.359 h -8.34 c -21.86,-49.769 -48.14,-85.781 -122.06,-86.781"
         style="fill:#6f7479;fill-opacity:1;fill-rule:nonzero;stroke:none"
         id="path622" />
      <path
         d="M 7057.51,839.129 H 6904.2 v 414.921 h 153.31 c 118.1,0 191.28,-78.95 191.28,-207.83 0,-128.38 -73.18,-207.091 -191.28,-207.091 z m -0.41,438.051 -256.5,0.06 0.1,-7.63 h 9.45 c 24.13,0 43.15,-17.22 43.96,-41.5 V 865.242 c -0.7,-22.922 -18.91,-41.75 -43.15,-41.75 h -10.26 l -0.1,-7.73 h 256.5 c 151.72,0 247.28,87.59 247.28,230.458 0,143.18 -95.56,230.96 -247.28,230.96"
         style="fill:#6f7479;fill-opacity:1;fill-rule:nonzero;stroke:none"
         id="path624" />
      <path
         d="m 7597.83,839.34 h -120.25 v 195.67 h 133.18 c 20.11,-1.21 29.39,-15.34 29.39,-32.61 v -9.74 l 8.37,-0.109 V 1100.6 l -8.37,-0.12 v -9.74 c 0,-17.82 -9.85,-32.2 -31.15,-32.66 h -131.42 v 195.63 h 159.49 c 23.43,-0.46 38.56,-17.93 38.56,-39.53 v -11.82 l 8.37,-0.09 v 87.03 c -13.41,-5.2 -54.97,-11.82 -85.89,-12.06 h -224.72 l 0.15,-7.69 h 10.56 c 24.99,0 44.43,-17.36 44.43,-40.28 V 864.281 c -0.92,-22.672 -19.6,-40.84 -44.38,-40.84 h -10.61 l -0.1,-7.679 h 312.45 l 42.34,110.359 h -8.34 c -21.85,-49.769 -48.14,-85.781 -122.06,-86.781"
         style="fill:#6f7479;fill-opacity:1;fill-rule:nonzero;stroke:none"
         id="path626" />
      <path
         d="m 8387.49,994.98 88.95,210.52 86.38,-210.52 z m 286.36,-126.66 -189.93,419.72 h -7.27 c -1.61,-20.15 -29.63,-79.22 -29.63,-79.22 L 8287.8,867.91 c -14.6,-29.051 -36.24,-41.859 -55.62,-43.668 -39.15,2.168 -60.67,24.117 -90.65,57.699 -31.78,35.649 -67.27,83.86 -67.27,83.86 -16.47,23.32 -42.48,52.659 -59.27,60.279 69.06,6.91 119.58,61.38 119.58,126.61 0,77.69 -59.36,124.55 -156.33,124.55 l -192.77,0.04 0.16,-7.73 h 10.34 c 24.51,0 42.94,-17.2 43.72,-40.03 V 864.121 c -1,-22.609 -19.38,-40.629 -43.72,-40.629 h -10.34 l -0.16,-7.73 h 157.3 l -0.12,7.73 h -10.39 c -24.75,0 -43.24,18.567 -43.72,41.699 V 1253.3 c 7.31,-0.4 45.22,1.53 88.43,-0.65 61.88,-3.13 100.66,-37 102.28,-94.61 0.52,-16.86 -1.67,-33.07 -5.34,-43.87 -22.08,-64.62 -70.55,-65.02 -113.11,-66.13 -25.12,-0.61 -44.06,-0.3 -44.06,-0.3 v -7.12 c 30.38,0 57.1,-25.7 77.91,-51.8 6.04,-7.519 66.68,-94.898 75.37,-105.359 24.12,-28.981 57.69,-67.652 142.81,-67.652 h 8.59 15.65 130.88 v 7.632 h -6.15 c -17.92,0 -38.16,17.52 -26.39,48.258 l 42.33,100.262 h 194.58 l 42,-102.391 c 10.04,-29.418 -9.64,-46.129 -27.15,-46.129 h -6.16 v -7.632 h 158 v 7.683 h -5.8 c -20.56,0 -43.72,13.227 -59.36,44.828"
         style="fill:#6f7479;fill-opacity:1;fill-rule:nonzero;stroke:none"
         id="path628" />
      <path
         d="m 9123.79,926.121 c -21.81,-49.719 -48.12,-85.781 -121.95,-86.781 h -120.31 v 388.67 c 0.49,23.02 20.83,41.6 45.88,41.6 h 9.09 l 0.11,7.67 h -159.32 l 0.07,-7.67 h 9.1 c 25.09,0 45.44,-18.63 45.96,-41.7 V 864.332 c -0.92,-22.723 -19.6,-40.84 -44.39,-40.84 h -10.56 l -0.14,-7.683 h 312.44 l 42.36,110.312 h -8.34"
         style="fill:#6f7479;fill-opacity:1;fill-rule:nonzero;stroke:none"
         id="path630" />
      <path
         d="M 2384.35,34.1211 H 2230.98 V 449.039 h 153.37 c 118.09,0 191.28,-78.949 191.28,-207.84 0,-128.367 -73.19,-207.0779 -191.28,-207.0779 z m -0.41,438.0509 -256.5,0.051 0.1,-7.621 h 9.45 c 24.12,0 43.15,-17.223 43.96,-41.5 V 60.2305 c -0.7,-22.9219 -18.92,-41.75 -43.15,-41.75 h -10.26 l -0.1,-7.7305 h 256.5 c 151.69,0 247.28,87.5898 247.28,230.449 0,143.192 -95.59,230.973 -247.28,230.973"
         style="fill:#6f7479;fill-opacity:1;fill-rule:nonzero;stroke:none"
         id="path632" />
      <path
         d="M 2924.67,34.332 H 2804.42 V 230 h 133.18 c 20.08,-1.211 29.39,-15.348 29.39,-32.609 v -9.739 l 8.36,-0.113 v 108.043 l -8.36,-0.113 v -9.739 c 0,-17.82 -9.85,-32.199 -31.17,-32.66 h -131.4 v 195.621 h 159.49 c 23.42,-0.449 38.57,-17.921 38.57,-39.519 V 397.34 l 8.36,-0.078 v 87.027 c -13.41,-5.207 -55.02,-11.82 -85.92,-12.066 h -224.7 l 0.14,-7.684 h 10.58 c 24.99,0 44.42,-17.359 44.42,-40.277 V 59.2695 c -0.92,-22.6679 -19.59,-40.8398 -44.39,-40.8398 h -10.61 l -0.08,-7.6797 h 312.43 l 42.36,110.352 h -8.34 c -21.86,-49.7622 -48.14,-85.77 -122.06,-86.77"
         style="fill:#6f7479;fill-opacity:1;fill-rule:nonzero;stroke:none"
         id="path634" />
      <path
         d="m 3401.64,377.512 c -24.24,22.468 -30.93,50.84 -30.93,70.929 0,46.848 37.89,88.411 94.59,88.411 47.9,0 86.68,-30 86.54,-79.172 h 7.37 v 85.222 9.129 h -30.47 c -20.43,4.449 -45.77,7.879 -65.95,7.879 -87.71,0 -135.15,-65.121 -135.15,-129.949 0,-29.77 10.55,-66.941 41.64,-95.309 L 3516.65,197.84 c 19.16,-17.871 30.12,-41.649 30.12,-71.68 0,-61.4881 -46.91,-99.9608 -103.03,-103.0897 -68.45,-3.789 -118.64,46.9414 -110.92,126.2107 h -6.75 c -11.71,-34.48 -14.6,-83.4997 -8.9,-107.2302 C 3347.42,10.8008 3409.73,0 3447.38,0 c 88.43,0 144.03,58.7617 144.03,143.82 0,31.102 -7.88,65.379 -38.62,93.75 l -151.15,139.942"
         style="fill:#6f7479;fill-opacity:1;fill-rule:nonzero;stroke:none"
         id="path636" />
      <path
         d="m 3789.65,190.02 88.94,210.46 86.39,-210.46 z M 4076,63.3086 3886.07,483.031 h -7.26 c -1.62,-20.101 -29.63,-79.218 -29.63,-79.218 L 3689.96,62.9023 C 3674.2,31.5508 3650.13,18.4805 3629.67,18.4805 h -6.1 v -7.6797 h 146.54 v 7.6289 h -6.15 c -17.92,0 -38.16,17.5195 -26.4,48.2617 l 42.35,100.2576 h 194.57 l 41.99,-102.3904 c 10.07,-29.418 -9.63,-46.1289 -27.15,-46.1289 h -6.18 v -7.6289 h 158.04 v 7.7305 h -5.81 c -20.56,0 -43.71,13.1796 -59.37,44.7773"
         style="fill:#6f7479;fill-opacity:1;fill-rule:nonzero;stroke:none"
         id="path638" />
      <path
         d="m 3936.86,556.031 c -26.39,0 -57.86,32.91 -92.65,32.91 -24.88,0 -43.66,-24.742 -49.36,-65.171 h 7.67 c 8.58,21.3 21.91,31.339 41.69,31.339 24.8,0 59.59,-33.668 92.65,-33.668 26.8,0 45.96,22.981 50.27,60.43 h -7.66 c -7.26,-17.57 -20.89,-25.84 -42.61,-25.84"
         style="fill:#6f7479;fill-opacity:1;fill-rule:nonzero;stroke:none"
         id="path640" />
      <path
         d="m 4423.62,23.0703 c -113.19,0 -202.59,88.3987 -202.59,218.4417 0,130.039 89.4,218.488 202.59,218.488 113.1,0 202.53,-88.449 202.53,-218.488 0,-130.043 -89.43,-218.4417 -202.53,-218.4417 z m 0,459.9607 c -143.52,0 -259.53,-98.609 -259.53,-241.519 0,-142.9222 116.01,-241.4612187 259.53,-241.4612187 143.43,0 259.5,98.5390187 259.5,241.4612187 0,142.91 -116.07,241.519 -259.5,241.519"
         style="fill:#6f7479;fill-opacity:1;fill-rule:nonzero;stroke:none"
         id="path642" />
      <path
         d="M 5159.73,549.16 H 4959.3 l 0.16,-7.629 h 9.75 c 25.53,0 46.49,-19.441 49,-44.32 V 66.8516 c -0.56,-26.8203 -22.42,-48.3711 -49.3,-48.3711 h -9.72 l -0.13,-7.7305 h 168.34 l -0.13,7.7305 h -9.69 c -26.91,0 -48.77,21.5508 -49.28,48.3711 V 526.09 h 88.65 c 65.41,0 101.77,-47.098 103.68,-117.731 0.46,-17.007 -1.51,-35.597 -4.88,-46.39 -34.73,-110.156 -161.25,-82.91 -161.25,-82.91 l 0.11,-7.258 c 96.45,-50.828 223.72,11.558 223.72,128.789 0,92.129 -60.26,148.57 -158.6,148.57"
         style="fill:#6f7479;fill-opacity:1;fill-rule:nonzero;stroke:none"
         id="path644" />
      <path
         d="m 5449.59,189.969 88.95,210.511 86.38,-210.511 z M 5735.95,63.3086 5546.02,483.031 h -7.26 c -1.62,-20.152 -29.64,-79.218 -29.64,-79.218 L 5349.9,62.9023 c -15.76,-31.3515 -39.83,-44.4218 -60.28,-44.4218 h -6.1 v -7.6797 h 146.54 v 7.6289 h -6.15 c -17.92,0 -38.17,17.5195 -26.4,48.2617 l 42.34,100.2576 h 194.57 l 42,-102.3904 c 10.04,-29.418 -9.64,-46.1289 -27.15,-46.1289 h -6.18 v -7.6289 h 158.03 v 7.6797 h -5.83 c -20.53,0 -43.72,13.2304 -59.34,44.8281"
         style="fill:#6f7479;fill-opacity:1;fill-rule:nonzero;stroke:none"
         id="path646" />
      <path
         d="m 6145.55,464.539 h 11.41 c 20.06,0 36.3,-13.969 36.95,-32.758 v -258.48 c -0.19,-94.5002 -59.78,-152.3987 -156.79,-152.3987 -88.36,0 -142.52,61.1797 -142.52,160.9887 v 249.39 c 0.46,19.028 16.86,33.258 37.05,33.258 h 11.42 v 7.731 h -146 v -7.731 h 11.42 c 20.24,0 36.59,-14.23 37,-33.258 V 172.152 c 0,-106.7223 73.59,-172.1012187 192.33,-172.1012187 118.74,0 191.74,65.8281187 191.74,173.2502187 v 258.828 c 0.92,18.641 17.05,32.41 36.97,32.41 h 11.45 v 7.731 h -132.43 v -7.731"
         style="fill:#6f7479;fill-opacity:1;fill-rule:nonzero;stroke:none"
         id="path648" />
      <path
         d="M 6571.35,34.332 H 6451.04 V 423 c 0.51,23.02 20.84,41.602 45.87,41.602 h 9.11 l 0.1,7.668 h -159.33 l 0.1,-7.668 h 9.08 c 25.09,0 45.44,-18.629 45.95,-41.7 V 59.3203 c -0.91,-22.7187 -19.59,-40.8398 -44.39,-40.8398 h -10.55 l -0.13,-7.6797 h 312.42 l 42.37,110.3012 h -8.34 c -21.81,-49.7114 -48.11,-85.77 -121.95,-86.77"
         style="fill:#6f7479;fill-opacity:1;fill-rule:nonzero;stroke:none"
         id="path650" />
      <path
         d="m 7010.74,23.0703 c -113.18,0 -202.59,88.3987 -202.59,218.4417 0,130.039 89.41,218.488 202.59,218.488 113.08,0 202.53,-88.449 202.53,-218.488 0,-130.043 -89.45,-218.4417 -202.53,-218.4417 z m 0,459.9607 c -143.51,0 -259.53,-98.609 -259.53,-241.519 0,-142.9222 116.02,-241.4612187 259.53,-241.4612187 143.44,0 259.47,98.5390187 259.47,241.4612187 0,142.91 -116.03,241.519 -259.47,241.519"
         style="fill:#6f7479;fill-opacity:1;fill-rule:nonzero;stroke:none"
         id="path652" />
    </g>
  </g>
</svg>
